%TF.GenerationSoftware,KiCad,Pcbnew,9.0.8-9.0.8~ubuntu22.04.1*%
%TF.CreationDate,2026-04-02T10:10:10+01:00*%
%TF.ProjectId,Relay_Zom_V1,52656c61-795f-45a6-9f6d-5f56312e6b69,rev?*%
%TF.SameCoordinates,Original*%
%TF.FileFunction,Copper,L3,Inr*%
%TF.FilePolarity,Positive*%
%FSLAX46Y46*%
G04 Gerber Fmt 4.6, Leading zero omitted, Abs format (unit mm)*
G04 Created by KiCad (PCBNEW 9.0.8-9.0.8~ubuntu22.04.1) date 2026-04-02 10:10:10*
%MOMM*%
%LPD*%
G01*
G04 APERTURE LIST*
%TA.AperFunction,ComponentPad*%
%ADD10C,3.000000*%
%TD*%
%TA.AperFunction,ComponentPad*%
%ADD11C,2.400000*%
%TD*%
%TA.AperFunction,WasherPad*%
%ADD12C,5.000000*%
%TD*%
%TA.AperFunction,ComponentPad*%
%ADD13O,3.000000X2.000000*%
%TD*%
%TA.AperFunction,ComponentPad*%
%ADD14R,3.000000X2.000000*%
%TD*%
%TA.AperFunction,ViaPad*%
%ADD15C,1.000000*%
%TD*%
%TA.AperFunction,Conductor*%
%ADD16C,0.600000*%
%TD*%
%TA.AperFunction,Conductor*%
%ADD17C,2.000000*%
%TD*%
G04 APERTURE END LIST*
D10*
%TO.N,/K7_SWITCH*%
%TO.C,K7*%
X191950000Y-102300000D03*
%TO.N,/K7_NO*%
X202150000Y-102300000D03*
%TO.N,/K7_NC*%
X202150000Y-92300000D03*
%TO.N,Net-(F7-Pad1)*%
X191950000Y-92300000D03*
X189450000Y-97300000D03*
%TD*%
%TO.N,/K8_SWITCH*%
%TO.C,K8*%
X191500000Y-126200000D03*
%TO.N,/K8_NO*%
X201700000Y-126200000D03*
%TO.N,/K8_NC*%
X201700000Y-116200000D03*
%TO.N,Net-(F8-Pad1)*%
X191500000Y-116200000D03*
X189000000Y-121200000D03*
%TD*%
D11*
%TO.N,/F11_OUT*%
%TO.C,F11*%
X159910000Y-55525000D03*
X159910000Y-52125000D03*
%TO.N,+12V*%
X146440000Y-55525000D03*
X146440000Y-52125000D03*
%TD*%
D10*
%TO.N,/K3_SWITCH*%
%TO.C,K3*%
X149000000Y-126100000D03*
%TO.N,/K3_NO*%
X159200000Y-126100000D03*
%TO.N,/K3_NC*%
X159200000Y-116100000D03*
%TO.N,Net-(F3-Pad1)*%
X149000000Y-116100000D03*
X146500000Y-121100000D03*
%TD*%
D11*
%TO.N,Net-(F9-Pad1)*%
%TO.C,F9*%
X181885000Y-143700000D03*
X181885000Y-140300000D03*
%TO.N,+12V*%
X168415000Y-143700000D03*
X168415000Y-140300000D03*
%TD*%
%TO.N,Net-(F5-Pad1)*%
%TO.C,F5*%
X139460000Y-164450000D03*
X139460000Y-161050000D03*
%TO.N,+12V*%
X125990000Y-164450000D03*
X125990000Y-161050000D03*
%TD*%
%TO.N,Net-(F8-Pad1)*%
%TO.C,F8*%
X181860000Y-122900000D03*
X181860000Y-119500000D03*
%TO.N,+12V*%
X168390000Y-122900000D03*
X168390000Y-119500000D03*
%TD*%
%TO.N,Net-(F4-Pad1)*%
%TO.C,F4*%
X139260000Y-143600000D03*
X139260000Y-140200000D03*
%TO.N,+12V*%
X125790000Y-143600000D03*
X125790000Y-140200000D03*
%TD*%
D10*
%TO.N,/K4_SWITCH*%
%TO.C,K4*%
X149150000Y-146875000D03*
%TO.N,/K4_NO*%
X159350000Y-146875000D03*
%TO.N,/K4_NC*%
X159350000Y-136875000D03*
%TO.N,Net-(F4-Pad1)*%
X149150000Y-136875000D03*
X146650000Y-141875000D03*
%TD*%
%TO.N,/K2_SWITCH*%
%TO.C,K2*%
X149325000Y-102275000D03*
%TO.N,/K2_NO*%
X159525000Y-102275000D03*
%TO.N,/K2_NC*%
X159525000Y-92275000D03*
%TO.N,Net-(F2-Pad1)*%
X149325000Y-92275000D03*
X146825000Y-97275000D03*
%TD*%
%TO.N,GND*%
%TO.C,K10*%
X191575000Y-167975000D03*
%TO.N,/K10_NO*%
X201775000Y-167975000D03*
%TO.N,/K10_NC*%
X201775000Y-157975000D03*
%TO.N,/K10_SWITCH*%
X191575000Y-157975000D03*
%TO.N,Net-(F10-Pad1)*%
X189075000Y-162975000D03*
%TD*%
%TO.N,/K1_SWITCH*%
%TO.C,K1*%
X149275000Y-79725000D03*
%TO.N,/K1_NO*%
X159475000Y-79725000D03*
%TO.N,/K1_NC*%
X159475000Y-69725000D03*
%TO.N,Net-(F1-Pad1)*%
X149275000Y-69725000D03*
X146775000Y-74725000D03*
%TD*%
D11*
%TO.N,Net-(F6-Pad1)*%
%TO.C,F6*%
X182260000Y-76500000D03*
X182260000Y-73100000D03*
%TO.N,+12V*%
X168790000Y-76500000D03*
X168790000Y-73100000D03*
%TD*%
D10*
%TO.N,GND*%
%TO.C,K5*%
X149275000Y-167750000D03*
%TO.N,/K5_NO*%
X159475000Y-167750000D03*
%TO.N,/K5_NC*%
X159475000Y-157750000D03*
%TO.N,/K5_SWITCH*%
X149275000Y-157750000D03*
%TO.N,Net-(F5-Pad1)*%
X146775000Y-162750000D03*
%TD*%
%TO.N,/K6_SWITCH*%
%TO.C,K6*%
X191975000Y-79825000D03*
%TO.N,/K6_NO*%
X202175000Y-79825000D03*
%TO.N,/K6_NC*%
X202175000Y-69825000D03*
%TO.N,Net-(F6-Pad1)*%
X191975000Y-69825000D03*
X189475000Y-74825000D03*
%TD*%
D12*
%TO.N,*%
%TO.C,J1*%
X230700000Y-50350000D03*
X230700000Y-175350000D03*
D13*
%TO.N,+12V*%
X226700000Y-168320000D03*
X226700000Y-164990000D03*
X226700000Y-161660000D03*
X226700000Y-158330000D03*
X226700000Y-155000000D03*
X226700000Y-151670000D03*
X226700000Y-148340000D03*
X226700000Y-145010000D03*
X226700000Y-141680000D03*
%TO.N,/K1_SWITCH*%
X226700000Y-138350000D03*
%TO.N,/K2_SWITCH*%
X226700000Y-135020000D03*
%TO.N,/K3_SWITCH*%
X226700000Y-131690000D03*
%TO.N,/K4_SWITCH*%
X226700000Y-128360000D03*
%TO.N,/K5_SWITCH*%
X226700000Y-125030000D03*
%TO.N,/K10_NO*%
X226700000Y-100280000D03*
%TO.N,/K9_NO*%
X226700000Y-96950000D03*
%TO.N,/K8_NO*%
X226700000Y-93620000D03*
%TO.N,/K7_NO*%
X226700000Y-90290000D03*
%TO.N,/K6_NO*%
X226700000Y-86960000D03*
%TO.N,/K5_NO*%
X226700000Y-83630000D03*
%TO.N,/K4_NO*%
X226700000Y-80300000D03*
%TO.N,/K3_NO*%
X226700000Y-76970000D03*
%TO.N,/K2_NO*%
X226700000Y-73640000D03*
%TO.N,/K1_NO*%
X226700000Y-70310000D03*
%TO.N,/K6_NC*%
X226700000Y-66980000D03*
%TO.N,/K1_NC*%
X226700000Y-63650000D03*
%TO.N,/F11_OUT*%
X226700000Y-60320000D03*
D14*
X226700000Y-56990000D03*
D13*
%TO.N,GND*%
X231500000Y-168320000D03*
X231500000Y-164990000D03*
X231500000Y-161660000D03*
X231500000Y-158330000D03*
X231500000Y-155000000D03*
X231500000Y-151670000D03*
X231500000Y-148340000D03*
X231500000Y-145010000D03*
X231500000Y-141680000D03*
%TO.N,/K10_SWITCH*%
X231500000Y-138350000D03*
%TO.N,/K9_SWITCH*%
X231500000Y-135020000D03*
%TO.N,/K8_SWITCH*%
X231500000Y-131690000D03*
%TO.N,/K7_SWITCH*%
X231500000Y-128360000D03*
%TO.N,/K6_SWITCH*%
X231500000Y-125030000D03*
%TO.N,/K10_NO*%
X231500000Y-100280000D03*
%TO.N,/K9_NO*%
X231500000Y-96950000D03*
%TO.N,/K8_NO*%
X231500000Y-93620000D03*
%TO.N,/K7_NO*%
X231500000Y-90290000D03*
%TO.N,/K6_NO*%
X231500000Y-86960000D03*
%TO.N,/K5_NO*%
X231500000Y-83630000D03*
%TO.N,/K4_NO*%
X231500000Y-80300000D03*
%TO.N,/K3_NO*%
X231500000Y-76970000D03*
%TO.N,/K2_NO*%
X231500000Y-73640000D03*
%TO.N,/K1_NO*%
X231500000Y-70310000D03*
%TO.N,/F12_OUT*%
X231500000Y-66980000D03*
X231500000Y-63650000D03*
X231500000Y-60320000D03*
X231500000Y-56990000D03*
%TD*%
D11*
%TO.N,Net-(F10-Pad1)*%
%TO.C,F10*%
X181885000Y-164800000D03*
X181885000Y-161400000D03*
%TO.N,+12V*%
X168415000Y-164800000D03*
X168415000Y-161400000D03*
%TD*%
%TO.N,Net-(F2-Pad1)*%
%TO.C,F2*%
X139585000Y-99175000D03*
X139585000Y-95775000D03*
%TO.N,+12V*%
X126115000Y-99175000D03*
X126115000Y-95775000D03*
%TD*%
%TO.N,Net-(F1-Pad1)*%
%TO.C,F1*%
X139585000Y-76775000D03*
X139585000Y-73375000D03*
%TO.N,+12V*%
X126115000Y-76775000D03*
X126115000Y-73375000D03*
%TD*%
D10*
%TO.N,/K9_SWITCH*%
%TO.C,K9*%
X191525000Y-146900000D03*
%TO.N,/K9_NO*%
X201725000Y-146900000D03*
%TO.N,/K9_NC*%
X201725000Y-136900000D03*
%TO.N,Net-(F9-Pad1)*%
X191525000Y-136900000D03*
X189025000Y-141900000D03*
%TD*%
D11*
%TO.N,/F12_OUT*%
%TO.C,F12*%
X202485000Y-55525000D03*
X202485000Y-52125000D03*
%TO.N,+12V*%
X189015000Y-55525000D03*
X189015000Y-52125000D03*
%TD*%
%TO.N,Net-(F7-Pad1)*%
%TO.C,F7*%
X182260000Y-99075000D03*
X182260000Y-95675000D03*
%TO.N,+12V*%
X168790000Y-99075000D03*
X168790000Y-95675000D03*
%TD*%
%TO.N,Net-(F3-Pad1)*%
%TO.C,F3*%
X139285000Y-122700000D03*
X139285000Y-119300000D03*
%TO.N,+12V*%
X125815000Y-122700000D03*
X125815000Y-119300000D03*
%TD*%
D15*
%TO.N,/K1_SWITCH*%
X213900000Y-138325000D03*
%TO.N,/K2_SWITCH*%
X211125000Y-134800000D03*
%TO.N,/K3_SWITCH*%
X208950000Y-130575000D03*
%TO.N,/K6_SWITCH*%
X222775000Y-121900000D03*
%TO.N,/K7_SWITCH*%
X213200000Y-119375000D03*
%TO.N,/K8_SWITCH*%
X209450000Y-117075000D03*
%TD*%
D16*
%TO.N,/K5_SWITCH*%
X149275000Y-157750000D02*
X152775000Y-161250000D01*
X222720000Y-125030000D02*
X226700000Y-125030000D01*
X152775000Y-161250000D02*
X152775000Y-168300000D01*
X156125000Y-171650000D02*
X156275000Y-171500000D01*
X152775000Y-168300000D02*
X156125000Y-171650000D01*
X156275000Y-171500000D02*
X217325000Y-171500000D01*
X217325000Y-171500000D02*
X221425000Y-167400000D01*
X221425000Y-167400000D02*
X221425000Y-126325000D01*
X221425000Y-126325000D02*
X222720000Y-125030000D01*
%TO.N,GND*%
X149275000Y-167750000D02*
X155275000Y-173750000D01*
X155275000Y-173750000D02*
X226070000Y-173750000D01*
X226070000Y-173750000D02*
X231500000Y-168320000D01*
D17*
%TO.N,/K1_NC*%
X166700000Y-62500000D02*
X221225000Y-62500000D01*
X222525000Y-63650000D02*
X226700000Y-63650000D01*
X159475000Y-69725000D02*
X166700000Y-62500000D01*
X221225000Y-62500000D02*
X222450000Y-63725000D01*
X222450000Y-63725000D02*
X222525000Y-63650000D01*
%TO.N,/K6_NC*%
X202175000Y-69825000D02*
X217150000Y-69825000D01*
X217150000Y-69825000D02*
X219995000Y-66980000D01*
X219995000Y-66980000D02*
X226700000Y-66980000D01*
%TO.N,/K7_NO*%
X215725000Y-90400000D02*
X215835000Y-90290000D01*
X215835000Y-90290000D02*
X226700000Y-90290000D01*
X214050000Y-90400000D02*
X215725000Y-90400000D01*
X202150000Y-102300000D02*
X214050000Y-90400000D01*
%TO.N,/K8_NO*%
X201700000Y-126200000D02*
X198200000Y-122700000D01*
X219620000Y-93620000D02*
X226700000Y-93620000D01*
X198200000Y-111700000D02*
X201325000Y-108575000D01*
X219500000Y-93500000D02*
X219620000Y-93620000D01*
X204425000Y-108575000D02*
X219500000Y-93500000D01*
X198200000Y-122700000D02*
X198200000Y-111700000D01*
X201325000Y-108575000D02*
X204425000Y-108575000D01*
%TO.N,/K9_NO*%
X199025000Y-134400000D02*
X206450000Y-126975000D01*
X222250000Y-96950000D02*
X226700000Y-96950000D01*
X199025000Y-144200000D02*
X199025000Y-134400000D01*
X206450000Y-126975000D02*
X206450000Y-112750000D01*
X201725000Y-146900000D02*
X199025000Y-144200000D01*
X206450000Y-112750000D02*
X222250000Y-96950000D01*
%TO.N,/K10_NO*%
X211250000Y-167975000D02*
X217500000Y-161725000D01*
X217500000Y-107050000D02*
X224270000Y-100280000D01*
X224270000Y-100280000D02*
X226700000Y-100280000D01*
X201775000Y-167975000D02*
X211250000Y-167975000D01*
X217500000Y-161725000D02*
X217500000Y-107050000D01*
%TD*%
M02*
