%TF.GenerationSoftware,KiCad,Pcbnew,9.0.8-9.0.8~ubuntu22.04.1*%
%TF.CreationDate,2026-04-02T10:10:10+01:00*%
%TF.ProjectId,Relay_Zom_V1,52656c61-795f-45a6-9f6d-5f56312e6b69,rev?*%
%TF.SameCoordinates,Original*%
%TF.FileFunction,Legend,Bot*%
%TF.FilePolarity,Positive*%
%FSLAX46Y46*%
G04 Gerber Fmt 4.6, Leading zero omitted, Abs format (unit mm)*
G04 Created by KiCad (PCBNEW 9.0.8-9.0.8~ubuntu22.04.1) date 2026-04-02 10:10:10*
%MOMM*%
%LPD*%
G01*
G04 APERTURE LIST*
%ADD10C,4.300000*%
%ADD11C,3.000000*%
%ADD12C,2.400000*%
%ADD13C,5.000000*%
%ADD14O,3.000000X2.000000*%
%ADD15R,3.000000X2.000000*%
G04 APERTURE END LIST*
%LPC*%
D10*
%TO.C,H1*%
X130625000Y-50375000D03*
%TD*%
D11*
%TO.C,K7*%
X191950000Y-102300000D03*
X202150000Y-102300000D03*
X202150000Y-92300000D03*
X191950000Y-92300000D03*
X189450000Y-97300000D03*
%TD*%
%TO.C,K8*%
X191500000Y-126200000D03*
X201700000Y-126200000D03*
X201700000Y-116200000D03*
X191500000Y-116200000D03*
X189000000Y-121200000D03*
%TD*%
D12*
%TO.C,F11*%
X159910000Y-55525000D03*
X159910000Y-52125000D03*
X146440000Y-55525000D03*
X146440000Y-52125000D03*
%TD*%
D11*
%TO.C,K3*%
X149000000Y-126100000D03*
X159200000Y-126100000D03*
X159200000Y-116100000D03*
X149000000Y-116100000D03*
X146500000Y-121100000D03*
%TD*%
D12*
%TO.C,F9*%
X181885000Y-143700000D03*
X181885000Y-140300000D03*
X168415000Y-143700000D03*
X168415000Y-140300000D03*
%TD*%
%TO.C,F5*%
X139460000Y-164450000D03*
X139460000Y-161050000D03*
X125990000Y-164450000D03*
X125990000Y-161050000D03*
%TD*%
%TO.C,F8*%
X181860000Y-122900000D03*
X181860000Y-119500000D03*
X168390000Y-122900000D03*
X168390000Y-119500000D03*
%TD*%
%TO.C,F4*%
X139260000Y-143600000D03*
X139260000Y-140200000D03*
X125790000Y-143600000D03*
X125790000Y-140200000D03*
%TD*%
D10*
%TO.C,H2*%
X130625000Y-175400000D03*
%TD*%
D11*
%TO.C,K4*%
X149150000Y-146875000D03*
X159350000Y-146875000D03*
X159350000Y-136875000D03*
X149150000Y-136875000D03*
X146650000Y-141875000D03*
%TD*%
%TO.C,K2*%
X149325000Y-102275000D03*
X159525000Y-102275000D03*
X159525000Y-92275000D03*
X149325000Y-92275000D03*
X146825000Y-97275000D03*
%TD*%
%TO.C,K10*%
X191575000Y-167975000D03*
X201775000Y-167975000D03*
X201775000Y-157975000D03*
X191575000Y-157975000D03*
X189075000Y-162975000D03*
%TD*%
%TO.C,K1*%
X149275000Y-79725000D03*
X159475000Y-79725000D03*
X159475000Y-69725000D03*
X149275000Y-69725000D03*
X146775000Y-74725000D03*
%TD*%
D12*
%TO.C,F6*%
X182260000Y-76500000D03*
X182260000Y-73100000D03*
X168790000Y-76500000D03*
X168790000Y-73100000D03*
%TD*%
D11*
%TO.C,K5*%
X149275000Y-167750000D03*
X159475000Y-167750000D03*
X159475000Y-157750000D03*
X149275000Y-157750000D03*
X146775000Y-162750000D03*
%TD*%
%TO.C,K6*%
X191975000Y-79825000D03*
X202175000Y-79825000D03*
X202175000Y-69825000D03*
X191975000Y-69825000D03*
X189475000Y-74825000D03*
%TD*%
D13*
%TO.C,J1*%
X230700000Y-50350000D03*
X230700000Y-175350000D03*
D14*
X226700000Y-168320000D03*
X226700000Y-164990000D03*
X226700000Y-161660000D03*
X226700000Y-158330000D03*
X226700000Y-155000000D03*
X226700000Y-151670000D03*
X226700000Y-148340000D03*
X226700000Y-145010000D03*
X226700000Y-141680000D03*
X226700000Y-138350000D03*
X226700000Y-135020000D03*
X226700000Y-131690000D03*
X226700000Y-128360000D03*
X226700000Y-125030000D03*
X226700000Y-100280000D03*
X226700000Y-96950000D03*
X226700000Y-93620000D03*
X226700000Y-90290000D03*
X226700000Y-86960000D03*
X226700000Y-83630000D03*
X226700000Y-80300000D03*
X226700000Y-76970000D03*
X226700000Y-73640000D03*
X226700000Y-70310000D03*
X226700000Y-66980000D03*
X226700000Y-63650000D03*
X226700000Y-60320000D03*
D15*
X226700000Y-56990000D03*
D14*
X231500000Y-168320000D03*
X231500000Y-164990000D03*
X231500000Y-161660000D03*
X231500000Y-158330000D03*
X231500000Y-155000000D03*
X231500000Y-151670000D03*
X231500000Y-148340000D03*
X231500000Y-145010000D03*
X231500000Y-141680000D03*
X231500000Y-138350000D03*
X231500000Y-135020000D03*
X231500000Y-131690000D03*
X231500000Y-128360000D03*
X231500000Y-125030000D03*
X231500000Y-100280000D03*
X231500000Y-96950000D03*
X231500000Y-93620000D03*
X231500000Y-90290000D03*
X231500000Y-86960000D03*
X231500000Y-83630000D03*
X231500000Y-80300000D03*
X231500000Y-76970000D03*
X231500000Y-73640000D03*
X231500000Y-70310000D03*
X231500000Y-66980000D03*
X231500000Y-63650000D03*
X231500000Y-60320000D03*
X231500000Y-56990000D03*
%TD*%
D12*
%TO.C,F10*%
X181885000Y-164800000D03*
X181885000Y-161400000D03*
X168415000Y-164800000D03*
X168415000Y-161400000D03*
%TD*%
%TO.C,F2*%
X139585000Y-99175000D03*
X139585000Y-95775000D03*
X126115000Y-99175000D03*
X126115000Y-95775000D03*
%TD*%
%TO.C,F1*%
X139585000Y-76775000D03*
X139585000Y-73375000D03*
X126115000Y-76775000D03*
X126115000Y-73375000D03*
%TD*%
D11*
%TO.C,K9*%
X191525000Y-146900000D03*
X201725000Y-146900000D03*
X201725000Y-136900000D03*
X191525000Y-136900000D03*
X189025000Y-141900000D03*
%TD*%
D12*
%TO.C,F12*%
X202485000Y-55525000D03*
X202485000Y-52125000D03*
X189015000Y-55525000D03*
X189015000Y-52125000D03*
%TD*%
%TO.C,F7*%
X182260000Y-99075000D03*
X182260000Y-95675000D03*
X168790000Y-99075000D03*
X168790000Y-95675000D03*
%TD*%
%TO.C,F3*%
X139285000Y-122700000D03*
X139285000Y-119300000D03*
X125815000Y-122700000D03*
X125815000Y-119300000D03*
%TD*%
%LPD*%
M02*
