%TF.GenerationSoftware,KiCad,Pcbnew,9.0.8-9.0.8~ubuntu22.04.1*%
%TF.CreationDate,2026-04-02T10:10:10+01:00*%
%TF.ProjectId,Relay_Zom_V1,52656c61-795f-45a6-9f6d-5f56312e6b69,rev?*%
%TF.SameCoordinates,Original*%
%TF.FileFunction,Copper,L1,Top*%
%TF.FilePolarity,Positive*%
%FSLAX46Y46*%
G04 Gerber Fmt 4.6, Leading zero omitted, Abs format (unit mm)*
G04 Created by KiCad (PCBNEW 9.0.8-9.0.8~ubuntu22.04.1) date 2026-04-02 10:10:10*
%MOMM*%
%LPD*%
G01*
G04 APERTURE LIST*
G04 Aperture macros list*
%AMRoundRect*
0 Rectangle with rounded corners*
0 $1 Rounding radius*
0 $2 $3 $4 $5 $6 $7 $8 $9 X,Y pos of 4 corners*
0 Add a 4 corners polygon primitive as box body*
4,1,4,$2,$3,$4,$5,$6,$7,$8,$9,$2,$3,0*
0 Add four circle primitives for the rounded corners*
1,1,$1+$1,$2,$3*
1,1,$1+$1,$4,$5*
1,1,$1+$1,$6,$7*
1,1,$1+$1,$8,$9*
0 Add four rect primitives between the rounded corners*
20,1,$1+$1,$2,$3,$4,$5,0*
20,1,$1+$1,$4,$5,$6,$7,0*
20,1,$1+$1,$6,$7,$8,$9,0*
20,1,$1+$1,$8,$9,$2,$3,0*%
G04 Aperture macros list end*
%TA.AperFunction,ComponentPad*%
%ADD10C,3.000000*%
%TD*%
%TA.AperFunction,ComponentPad*%
%ADD11C,2.400000*%
%TD*%
%TA.AperFunction,SMDPad,CuDef*%
%ADD12RoundRect,0.250000X0.262500X0.450000X-0.262500X0.450000X-0.262500X-0.450000X0.262500X-0.450000X0*%
%TD*%
%TA.AperFunction,SMDPad,CuDef*%
%ADD13RoundRect,0.243750X-0.243750X-0.456250X0.243750X-0.456250X0.243750X0.456250X-0.243750X0.456250X0*%
%TD*%
%TA.AperFunction,WasherPad*%
%ADD14C,5.000000*%
%TD*%
%TA.AperFunction,ComponentPad*%
%ADD15O,3.000000X2.000000*%
%TD*%
%TA.AperFunction,ComponentPad*%
%ADD16R,3.000000X2.000000*%
%TD*%
%TA.AperFunction,ViaPad*%
%ADD17C,1.000000*%
%TD*%
%TA.AperFunction,Conductor*%
%ADD18C,0.600000*%
%TD*%
%TA.AperFunction,Conductor*%
%ADD19C,0.500000*%
%TD*%
%TA.AperFunction,Conductor*%
%ADD20C,2.000000*%
%TD*%
G04 APERTURE END LIST*
D10*
%TO.P,K7,1*%
%TO.N,/K7_SWITCH*%
X191950000Y-102300000D03*
%TO.P,K7,2*%
%TO.N,/K7_NO*%
X202150000Y-102300000D03*
%TO.P,K7,3*%
%TO.N,/K7_NC*%
X202150000Y-92300000D03*
%TO.P,K7,4*%
%TO.N,Net-(F7-Pad1)*%
X191950000Y-92300000D03*
%TO.P,K7,5*%
X189450000Y-97300000D03*
%TD*%
%TO.P,K8,1*%
%TO.N,/K8_SWITCH*%
X191500000Y-126200000D03*
%TO.P,K8,2*%
%TO.N,/K8_NO*%
X201700000Y-126200000D03*
%TO.P,K8,3*%
%TO.N,/K8_NC*%
X201700000Y-116200000D03*
%TO.P,K8,4*%
%TO.N,Net-(F8-Pad1)*%
X191500000Y-116200000D03*
%TO.P,K8,5*%
X189000000Y-121200000D03*
%TD*%
D11*
%TO.P,F11,1*%
%TO.N,/F11_OUT*%
X159910000Y-55525000D03*
X159910000Y-52125000D03*
%TO.P,F11,2*%
%TO.N,+12V*%
X146440000Y-55525000D03*
X146440000Y-52125000D03*
%TD*%
D10*
%TO.P,K3,1*%
%TO.N,/K3_SWITCH*%
X149000000Y-126100000D03*
%TO.P,K3,2*%
%TO.N,/K3_NO*%
X159200000Y-126100000D03*
%TO.P,K3,3*%
%TO.N,/K3_NC*%
X159200000Y-116100000D03*
%TO.P,K3,4*%
%TO.N,Net-(F3-Pad1)*%
X149000000Y-116100000D03*
%TO.P,K3,5*%
X146500000Y-121100000D03*
%TD*%
D12*
%TO.P,R3,1*%
%TO.N,Net-(F3-Pad1)*%
X154587500Y-112275000D03*
%TO.P,R3,2*%
%TO.N,Net-(D3-A)*%
X152762500Y-112275000D03*
%TD*%
D13*
%TO.P,D8,1,K*%
%TO.N,/K8_SWITCH*%
X191575000Y-112525000D03*
%TO.P,D8,2,A*%
%TO.N,Net-(D8-A)*%
X193450000Y-112525000D03*
%TD*%
D12*
%TO.P,R4,1*%
%TO.N,Net-(F4-Pad1)*%
X154762500Y-133200000D03*
%TO.P,R4,2*%
%TO.N,Net-(D4-A)*%
X152937500Y-133200000D03*
%TD*%
%TO.P,R8,1*%
%TO.N,Net-(F8-Pad1)*%
X197125000Y-112525000D03*
%TO.P,R8,2*%
%TO.N,Net-(D8-A)*%
X195300000Y-112525000D03*
%TD*%
D11*
%TO.P,F9,1*%
%TO.N,Net-(F9-Pad1)*%
X181885000Y-143700000D03*
X181885000Y-140300000D03*
%TO.P,F9,2*%
%TO.N,+12V*%
X168415000Y-143700000D03*
X168415000Y-140300000D03*
%TD*%
D13*
%TO.P,D4,1,K*%
%TO.N,/K4_SWITCH*%
X149137500Y-133175000D03*
%TO.P,D4,2,A*%
%TO.N,Net-(D4-A)*%
X151012500Y-133175000D03*
%TD*%
D11*
%TO.P,F5,1*%
%TO.N,Net-(F5-Pad1)*%
X139460000Y-164450000D03*
X139460000Y-161050000D03*
%TO.P,F5,2*%
%TO.N,+12V*%
X125990000Y-164450000D03*
X125990000Y-161050000D03*
%TD*%
D13*
%TO.P,D10,1,K*%
%TO.N,GND*%
X191587500Y-154425000D03*
%TO.P,D10,2,A*%
%TO.N,Net-(D10-A)*%
X193462500Y-154425000D03*
%TD*%
D12*
%TO.P,R10,1*%
%TO.N,/K10_SWITCH*%
X197162500Y-154450000D03*
%TO.P,R10,2*%
%TO.N,Net-(D10-A)*%
X195337500Y-154450000D03*
%TD*%
D13*
%TO.P,D1,1,K*%
%TO.N,/K1_SWITCH*%
X149287500Y-65900000D03*
%TO.P,D1,2,A*%
%TO.N,Net-(D1-A)*%
X151162500Y-65900000D03*
%TD*%
D11*
%TO.P,F8,1*%
%TO.N,Net-(F8-Pad1)*%
X181860000Y-122900000D03*
X181860000Y-119500000D03*
%TO.P,F8,2*%
%TO.N,+12V*%
X168390000Y-122900000D03*
X168390000Y-119500000D03*
%TD*%
D12*
%TO.P,R9,1*%
%TO.N,Net-(F9-Pad1)*%
X197012500Y-133375000D03*
%TO.P,R9,2*%
%TO.N,Net-(D9-A)*%
X195187500Y-133375000D03*
%TD*%
D11*
%TO.P,F4,1*%
%TO.N,Net-(F4-Pad1)*%
X139260000Y-143600000D03*
X139260000Y-140200000D03*
%TO.P,F4,2*%
%TO.N,+12V*%
X125790000Y-143600000D03*
X125790000Y-140200000D03*
%TD*%
D12*
%TO.P,R2,1*%
%TO.N,Net-(F2-Pad1)*%
X155050000Y-88525000D03*
%TO.P,R2,2*%
%TO.N,Net-(D2-A)*%
X153225000Y-88525000D03*
%TD*%
D13*
%TO.P,D9,1,K*%
%TO.N,/K9_SWITCH*%
X191525000Y-133375000D03*
%TO.P,D9,2,A*%
%TO.N,Net-(D9-A)*%
X193400000Y-133375000D03*
%TD*%
%TO.P,D6,1,K*%
%TO.N,/K6_SWITCH*%
X191987500Y-66100000D03*
%TO.P,D6,2,A*%
%TO.N,Net-(D6-A)*%
X193862500Y-66100000D03*
%TD*%
D10*
%TO.P,K4,1*%
%TO.N,/K4_SWITCH*%
X149150000Y-146875000D03*
%TO.P,K4,2*%
%TO.N,/K4_NO*%
X159350000Y-146875000D03*
%TO.P,K4,3*%
%TO.N,/K4_NC*%
X159350000Y-136875000D03*
%TO.P,K4,4*%
%TO.N,Net-(F4-Pad1)*%
X149150000Y-136875000D03*
%TO.P,K4,5*%
X146650000Y-141875000D03*
%TD*%
D13*
%TO.P,D5,1,K*%
%TO.N,GND*%
X149237500Y-154100000D03*
%TO.P,D5,2,A*%
%TO.N,Net-(D5-A)*%
X151112500Y-154100000D03*
%TD*%
D10*
%TO.P,K2,1*%
%TO.N,/K2_SWITCH*%
X149325000Y-102275000D03*
%TO.P,K2,2*%
%TO.N,/K2_NO*%
X159525000Y-102275000D03*
%TO.P,K2,3*%
%TO.N,/K2_NC*%
X159525000Y-92275000D03*
%TO.P,K2,4*%
%TO.N,Net-(F2-Pad1)*%
X149325000Y-92275000D03*
%TO.P,K2,5*%
X146825000Y-97275000D03*
%TD*%
%TO.P,K10,1*%
%TO.N,GND*%
X191575000Y-167975000D03*
%TO.P,K10,2*%
%TO.N,/K10_NO*%
X201775000Y-167975000D03*
%TO.P,K10,3*%
%TO.N,/K10_NC*%
X201775000Y-157975000D03*
%TO.P,K10,4*%
%TO.N,/K10_SWITCH*%
X191575000Y-157975000D03*
%TO.P,K10,5*%
%TO.N,Net-(F10-Pad1)*%
X189075000Y-162975000D03*
%TD*%
%TO.P,K1,1*%
%TO.N,/K1_SWITCH*%
X149275000Y-79725000D03*
%TO.P,K1,2*%
%TO.N,/K1_NO*%
X159475000Y-79725000D03*
%TO.P,K1,3*%
%TO.N,/K1_NC*%
X159475000Y-69725000D03*
%TO.P,K1,4*%
%TO.N,Net-(F1-Pad1)*%
X149275000Y-69725000D03*
%TO.P,K1,5*%
X146775000Y-74725000D03*
%TD*%
D11*
%TO.P,F6,1*%
%TO.N,Net-(F6-Pad1)*%
X182260000Y-76500000D03*
X182260000Y-73100000D03*
%TO.P,F6,2*%
%TO.N,+12V*%
X168790000Y-76500000D03*
X168790000Y-73100000D03*
%TD*%
D10*
%TO.P,K5,1*%
%TO.N,GND*%
X149275000Y-167750000D03*
%TO.P,K5,2*%
%TO.N,/K5_NO*%
X159475000Y-167750000D03*
%TO.P,K5,3*%
%TO.N,/K5_NC*%
X159475000Y-157750000D03*
%TO.P,K5,4*%
%TO.N,/K5_SWITCH*%
X149275000Y-157750000D03*
%TO.P,K5,5*%
%TO.N,Net-(F5-Pad1)*%
X146775000Y-162750000D03*
%TD*%
D13*
%TO.P,D2,1,K*%
%TO.N,/K2_SWITCH*%
X149387500Y-88500000D03*
%TO.P,D2,2,A*%
%TO.N,Net-(D2-A)*%
X151262500Y-88500000D03*
%TD*%
D12*
%TO.P,R7,1*%
%TO.N,Net-(F7-Pad1)*%
X197750000Y-88825000D03*
%TO.P,R7,2*%
%TO.N,Net-(D7-A)*%
X195925000Y-88825000D03*
%TD*%
D10*
%TO.P,K6,1*%
%TO.N,/K6_SWITCH*%
X191975000Y-79825000D03*
%TO.P,K6,2*%
%TO.N,/K6_NO*%
X202175000Y-79825000D03*
%TO.P,K6,3*%
%TO.N,/K6_NC*%
X202175000Y-69825000D03*
%TO.P,K6,4*%
%TO.N,Net-(F6-Pad1)*%
X191975000Y-69825000D03*
%TO.P,K6,5*%
X189475000Y-74825000D03*
%TD*%
D14*
%TO.P,J1,*%
%TO.N,*%
X230700000Y-50350000D03*
X230700000Y-175350000D03*
D15*
%TO.P,J1,1,Pin_1*%
%TO.N,+12V*%
X226700000Y-168320000D03*
%TO.P,J1,2,Pin_2*%
X226700000Y-164990000D03*
%TO.P,J1,3,Pin_3*%
X226700000Y-161660000D03*
%TO.P,J1,4,Pin_4*%
X226700000Y-158330000D03*
%TO.P,J1,5,Pin_5*%
X226700000Y-155000000D03*
%TO.P,J1,6,Pin_6*%
X226700000Y-151670000D03*
%TO.P,J1,7,Pin_7*%
X226700000Y-148340000D03*
%TO.P,J1,8,Pin_8*%
X226700000Y-145010000D03*
%TO.P,J1,9,Pin_9*%
X226700000Y-141680000D03*
%TO.P,J1,10,Pin_10*%
%TO.N,/K1_SWITCH*%
X226700000Y-138350000D03*
%TO.P,J1,11,Pin_11*%
%TO.N,/K2_SWITCH*%
X226700000Y-135020000D03*
%TO.P,J1,12,Pin_12*%
%TO.N,/K3_SWITCH*%
X226700000Y-131690000D03*
%TO.P,J1,13,Pin_13*%
%TO.N,/K4_SWITCH*%
X226700000Y-128360000D03*
%TO.P,J1,14,Pin_14*%
%TO.N,/K5_SWITCH*%
X226700000Y-125030000D03*
%TO.P,J1,15,Pin_15*%
%TO.N,/K10_NO*%
X226700000Y-100280000D03*
%TO.P,J1,16,Pin_16*%
%TO.N,/K9_NO*%
X226700000Y-96950000D03*
%TO.P,J1,17,Pin_17*%
%TO.N,/K8_NO*%
X226700000Y-93620000D03*
%TO.P,J1,18,Pin_18*%
%TO.N,/K7_NO*%
X226700000Y-90290000D03*
%TO.P,J1,19,Pin_19*%
%TO.N,/K6_NO*%
X226700000Y-86960000D03*
%TO.P,J1,20,Pin_20*%
%TO.N,/K5_NO*%
X226700000Y-83630000D03*
%TO.P,J1,21,Pin_21*%
%TO.N,/K4_NO*%
X226700000Y-80300000D03*
%TO.P,J1,22,Pin_22*%
%TO.N,/K3_NO*%
X226700000Y-76970000D03*
%TO.P,J1,23,Pin_23*%
%TO.N,/K2_NO*%
X226700000Y-73640000D03*
%TO.P,J1,24,Pin_24*%
%TO.N,/K1_NO*%
X226700000Y-70310000D03*
%TO.P,J1,25,Pin_25*%
%TO.N,/K6_NC*%
X226700000Y-66980000D03*
%TO.P,J1,26,Pin_26*%
%TO.N,/K1_NC*%
X226700000Y-63650000D03*
%TO.P,J1,27,Pin_27*%
%TO.N,/F11_OUT*%
X226700000Y-60320000D03*
D16*
%TO.P,J1,28,Pin_28*%
X226700000Y-56990000D03*
D15*
%TO.P,J1,29,Pin_29*%
%TO.N,GND*%
X231500000Y-168320000D03*
%TO.P,J1,30,Pin_30*%
X231500000Y-164990000D03*
%TO.P,J1,31,Pin_31*%
X231500000Y-161660000D03*
%TO.P,J1,32,Pin_32*%
X231500000Y-158330000D03*
%TO.P,J1,33,Pin_33*%
X231500000Y-155000000D03*
%TO.P,J1,34,Pin_34*%
X231500000Y-151670000D03*
%TO.P,J1,35,Pin_35*%
X231500000Y-148340000D03*
%TO.P,J1,36,Pin_36*%
X231500000Y-145010000D03*
%TO.P,J1,37,Pin_37*%
X231500000Y-141680000D03*
%TO.P,J1,38,Pin_38*%
%TO.N,/K10_SWITCH*%
X231500000Y-138350000D03*
%TO.P,J1,39,Pin_39*%
%TO.N,/K9_SWITCH*%
X231500000Y-135020000D03*
%TO.P,J1,40,Pin_40*%
%TO.N,/K8_SWITCH*%
X231500000Y-131690000D03*
%TO.P,J1,41,Pin_41*%
%TO.N,/K7_SWITCH*%
X231500000Y-128360000D03*
%TO.P,J1,42,Pin_42*%
%TO.N,/K6_SWITCH*%
X231500000Y-125030000D03*
%TO.P,J1,43,Pin_43*%
%TO.N,/K10_NO*%
X231500000Y-100280000D03*
%TO.P,J1,44,Pin_44*%
%TO.N,/K9_NO*%
X231500000Y-96950000D03*
%TO.P,J1,45,Pin_45*%
%TO.N,/K8_NO*%
X231500000Y-93620000D03*
%TO.P,J1,46,Pin_46*%
%TO.N,/K7_NO*%
X231500000Y-90290000D03*
%TO.P,J1,47,Pin_47*%
%TO.N,/K6_NO*%
X231500000Y-86960000D03*
%TO.P,J1,48,Pin_48*%
%TO.N,/K5_NO*%
X231500000Y-83630000D03*
%TO.P,J1,49,Pin_49*%
%TO.N,/K4_NO*%
X231500000Y-80300000D03*
%TO.P,J1,50,Pin_50*%
%TO.N,/K3_NO*%
X231500000Y-76970000D03*
%TO.P,J1,51,Pin_51*%
%TO.N,/K2_NO*%
X231500000Y-73640000D03*
%TO.P,J1,52,Pin_52*%
%TO.N,/K1_NO*%
X231500000Y-70310000D03*
%TO.P,J1,53,Pin_53*%
%TO.N,/F12_OUT*%
X231500000Y-66980000D03*
%TO.P,J1,54,Pin_54*%
X231500000Y-63650000D03*
%TO.P,J1,55,Pin_55*%
X231500000Y-60320000D03*
%TO.P,J1,56,Pin_56*%
X231500000Y-56990000D03*
%TD*%
D11*
%TO.P,F10,1*%
%TO.N,Net-(F10-Pad1)*%
X181885000Y-164800000D03*
X181885000Y-161400000D03*
%TO.P,F10,2*%
%TO.N,+12V*%
X168415000Y-164800000D03*
X168415000Y-161400000D03*
%TD*%
%TO.P,F2,1*%
%TO.N,Net-(F2-Pad1)*%
X139585000Y-99175000D03*
X139585000Y-95775000D03*
%TO.P,F2,2*%
%TO.N,+12V*%
X126115000Y-99175000D03*
X126115000Y-95775000D03*
%TD*%
D13*
%TO.P,D7,1,K*%
%TO.N,/K7_SWITCH*%
X192050000Y-88800000D03*
%TO.P,D7,2,A*%
%TO.N,Net-(D7-A)*%
X193925000Y-88800000D03*
%TD*%
D12*
%TO.P,R6,1*%
%TO.N,Net-(F6-Pad1)*%
X197425000Y-66075000D03*
%TO.P,R6,2*%
%TO.N,Net-(D6-A)*%
X195600000Y-66075000D03*
%TD*%
D11*
%TO.P,F1,1*%
%TO.N,Net-(F1-Pad1)*%
X139585000Y-76775000D03*
X139585000Y-73375000D03*
%TO.P,F1,2*%
%TO.N,+12V*%
X126115000Y-76775000D03*
X126115000Y-73375000D03*
%TD*%
D12*
%TO.P,R1,1*%
%TO.N,Net-(F1-Pad1)*%
X154812500Y-65900000D03*
%TO.P,R1,2*%
%TO.N,Net-(D1-A)*%
X152987500Y-65900000D03*
%TD*%
D10*
%TO.P,K9,1*%
%TO.N,/K9_SWITCH*%
X191525000Y-146900000D03*
%TO.P,K9,2*%
%TO.N,/K9_NO*%
X201725000Y-146900000D03*
%TO.P,K9,3*%
%TO.N,/K9_NC*%
X201725000Y-136900000D03*
%TO.P,K9,4*%
%TO.N,Net-(F9-Pad1)*%
X191525000Y-136900000D03*
%TO.P,K9,5*%
X189025000Y-141900000D03*
%TD*%
D11*
%TO.P,F12,1*%
%TO.N,/F12_OUT*%
X202485000Y-55525000D03*
X202485000Y-52125000D03*
%TO.P,F12,2*%
%TO.N,+12V*%
X189015000Y-55525000D03*
X189015000Y-52125000D03*
%TD*%
D13*
%TO.P,D3,1,K*%
%TO.N,/K3_SWITCH*%
X148962500Y-112275000D03*
%TO.P,D3,2,A*%
%TO.N,Net-(D3-A)*%
X150837500Y-112275000D03*
%TD*%
D12*
%TO.P,R5,1*%
%TO.N,/K5_SWITCH*%
X154662500Y-154125000D03*
%TO.P,R5,2*%
%TO.N,Net-(D5-A)*%
X152837500Y-154125000D03*
%TD*%
D11*
%TO.P,F7,1*%
%TO.N,Net-(F7-Pad1)*%
X182260000Y-99075000D03*
X182260000Y-95675000D03*
%TO.P,F7,2*%
%TO.N,+12V*%
X168790000Y-99075000D03*
X168790000Y-95675000D03*
%TD*%
%TO.P,F3,1*%
%TO.N,Net-(F3-Pad1)*%
X139285000Y-122700000D03*
X139285000Y-119300000D03*
%TO.P,F3,2*%
%TO.N,+12V*%
X125815000Y-122700000D03*
X125815000Y-119300000D03*
%TD*%
D17*
%TO.N,/K1_SWITCH*%
X213900000Y-138325000D03*
%TO.N,/K2_SWITCH*%
X211125000Y-134800000D03*
%TO.N,/K3_SWITCH*%
X208950000Y-130575000D03*
%TO.N,/K6_SWITCH*%
X222775000Y-121900000D03*
%TO.N,/K7_SWITCH*%
X213200000Y-119375000D03*
%TO.N,/K8_SWITCH*%
X209450000Y-117075000D03*
%TD*%
D18*
%TO.N,/K5_SWITCH*%
X154662500Y-154125000D02*
X154662500Y-156062500D01*
X154662500Y-156062500D02*
X154675000Y-156075000D01*
X154675000Y-156075000D02*
X154675000Y-156625000D01*
X154675000Y-156625000D02*
X153550000Y-157750000D01*
X153550000Y-157750000D02*
X149275000Y-157750000D01*
%TO.N,GND*%
X149237500Y-154100000D02*
X136375000Y-154100000D01*
X136375000Y-154100000D02*
X135950000Y-154525000D01*
X135950000Y-154525000D02*
X135950000Y-166600000D01*
X135950000Y-166600000D02*
X137100000Y-167750000D01*
X137100000Y-167750000D02*
X149275000Y-167750000D01*
%TO.N,/K10_SWITCH*%
X199075000Y-153025000D02*
X199075000Y-154500000D01*
X197162500Y-154450000D02*
X199025000Y-154450000D01*
X199025000Y-154450000D02*
X199075000Y-154500000D01*
X235225000Y-138350000D02*
X235825000Y-138950000D01*
X235825000Y-177850000D02*
X233725000Y-179950000D01*
X233725000Y-179950000D02*
X179650000Y-179950000D01*
X177600000Y-151675000D02*
X177650000Y-151725000D01*
X177650000Y-151725000D02*
X197775000Y-151725000D01*
X179650000Y-179950000D02*
X176250000Y-176550000D01*
X176800000Y-176000000D02*
X176800000Y-152475000D01*
X235825000Y-138950000D02*
X235825000Y-177850000D01*
X176250000Y-176550000D02*
X176800000Y-176000000D01*
X176800000Y-152475000D02*
X177600000Y-151675000D01*
X197775000Y-151725000D02*
X199075000Y-153025000D01*
X199075000Y-154500000D02*
X199075000Y-156650000D01*
X199075000Y-156650000D02*
X197750000Y-157975000D01*
X231500000Y-138350000D02*
X235225000Y-138350000D01*
X197750000Y-157975000D02*
X191575000Y-157975000D01*
%TO.N,GND*%
X191575000Y-167975000D02*
X191575000Y-170425000D01*
X191575000Y-170425000D02*
X192925000Y-171775000D01*
X192925000Y-171775000D02*
X227425000Y-171775000D01*
X227425000Y-171775000D02*
X230880000Y-168320000D01*
X191587500Y-154425000D02*
X179175000Y-154425000D01*
X178850000Y-154750000D02*
X178850000Y-167250000D01*
X179175000Y-154425000D02*
X178850000Y-154750000D01*
X178850000Y-167250000D02*
X181050000Y-169450000D01*
X181050000Y-169450000D02*
X190100000Y-169450000D01*
X190100000Y-169450000D02*
X191575000Y-167975000D01*
D19*
%TO.N,Net-(F1-Pad1)*%
X154812500Y-68237500D02*
X153325000Y-69725000D01*
D20*
X139585000Y-73375000D02*
X145425000Y-73375000D01*
D19*
X154812500Y-65900000D02*
X154812500Y-68237500D01*
D20*
X145425000Y-73375000D02*
X146775000Y-74725000D01*
D19*
X153325000Y-69725000D02*
X149275000Y-69725000D01*
D20*
%TO.N,Net-(F2-Pad1)*%
X145325000Y-95775000D02*
X146825000Y-97275000D01*
D19*
X155050000Y-90800000D02*
X153575000Y-92275000D01*
D20*
X139585000Y-95775000D02*
X145325000Y-95775000D01*
D19*
X155050000Y-88525000D02*
X155050000Y-90800000D01*
X153575000Y-92275000D02*
X149325000Y-92275000D01*
%TO.N,Net-(F3-Pad1)*%
X152250000Y-116125000D02*
X152150000Y-116125000D01*
X154587500Y-112275000D02*
X154587500Y-113787500D01*
D20*
X139285000Y-119300000D02*
X144700000Y-119300000D01*
D19*
X154587500Y-113787500D02*
X152250000Y-116125000D01*
X152125000Y-116100000D02*
X149000000Y-116100000D01*
D20*
X144700000Y-119300000D02*
X146500000Y-121100000D01*
D19*
X152150000Y-116125000D02*
X152125000Y-116100000D01*
D20*
%TO.N,Net-(F4-Pad1)*%
X144975000Y-140200000D02*
X146650000Y-141875000D01*
D19*
X154762500Y-134962500D02*
X152850000Y-136875000D01*
X154762500Y-133200000D02*
X154762500Y-134962500D01*
D20*
X139260000Y-140200000D02*
X144975000Y-140200000D01*
D19*
X152850000Y-136875000D02*
X149150000Y-136875000D01*
D20*
%TO.N,Net-(F5-Pad1)*%
X145075000Y-161050000D02*
X146775000Y-162750000D01*
X139460000Y-161050000D02*
X145075000Y-161050000D01*
D19*
%TO.N,Net-(F6-Pad1)*%
X195875000Y-69825000D02*
X191975000Y-69825000D01*
D20*
X187750000Y-73100000D02*
X189475000Y-74825000D01*
D19*
X197425000Y-66075000D02*
X197425000Y-68275000D01*
X197425000Y-68275000D02*
X195875000Y-69825000D01*
D20*
X182260000Y-73100000D02*
X187750000Y-73100000D01*
D19*
%TO.N,Net-(F7-Pad1)*%
X197750000Y-90575000D02*
X195925000Y-92400000D01*
X197750000Y-88825000D02*
X197750000Y-90575000D01*
D20*
X187825000Y-95675000D02*
X189450000Y-97300000D01*
X182260000Y-95675000D02*
X187825000Y-95675000D01*
D19*
X195925000Y-92400000D02*
X195825000Y-92300000D01*
X195825000Y-92300000D02*
X191950000Y-92300000D01*
D20*
%TO.N,Net-(F8-Pad1)*%
X187300000Y-119500000D02*
X189000000Y-121200000D01*
D19*
X194975000Y-116200000D02*
X191500000Y-116200000D01*
X197125000Y-114050000D02*
X194975000Y-116200000D01*
X197125000Y-112525000D02*
X197125000Y-114050000D01*
D20*
X181860000Y-119500000D02*
X187300000Y-119500000D01*
%TO.N,Net-(F9-Pad1)*%
X187425000Y-140300000D02*
X189025000Y-141900000D01*
D19*
X197012500Y-133375000D02*
X197012500Y-135262500D01*
D20*
X181885000Y-140300000D02*
X187425000Y-140300000D01*
D19*
X197012500Y-135262500D02*
X195375000Y-136900000D01*
X195375000Y-136900000D02*
X191525000Y-136900000D01*
D20*
%TO.N,Net-(F10-Pad1)*%
X187500000Y-161400000D02*
X189075000Y-162975000D01*
X181885000Y-161400000D02*
X187500000Y-161400000D01*
D19*
%TO.N,Net-(D1-A)*%
X151162500Y-65900000D02*
X152987500Y-65900000D01*
%TO.N,Net-(D2-A)*%
X151262500Y-88500000D02*
X153200000Y-88500000D01*
%TO.N,Net-(D3-A)*%
X150837500Y-112275000D02*
X152762500Y-112275000D01*
%TO.N,Net-(D4-A)*%
X151012500Y-133175000D02*
X152912500Y-133175000D01*
%TO.N,Net-(D5-A)*%
X151112500Y-154100000D02*
X152812500Y-154100000D01*
%TO.N,Net-(D6-A)*%
X193862500Y-66100000D02*
X195575000Y-66100000D01*
%TO.N,Net-(D7-A)*%
X193925000Y-88800000D02*
X195900000Y-88800000D01*
%TO.N,Net-(D8-A)*%
X193450000Y-112525000D02*
X195300000Y-112525000D01*
%TO.N,Net-(D9-A)*%
X193400000Y-133375000D02*
X195187500Y-133375000D01*
%TO.N,Net-(D10-A)*%
X193462500Y-154425000D02*
X195312500Y-154425000D01*
%TO.N,/K1_SWITCH*%
X155225000Y-85675000D02*
X212925000Y-85675000D01*
X136075000Y-66275000D02*
X136075000Y-79075000D01*
X214575000Y-137650000D02*
X213900000Y-138325000D01*
X146950000Y-80175000D02*
X147400000Y-79725000D01*
X149275000Y-79725000D02*
X155225000Y-85675000D01*
X136075000Y-79075000D02*
X137175000Y-80175000D01*
X136450000Y-65900000D02*
X136075000Y-66275000D01*
X137175000Y-80175000D02*
X146950000Y-80175000D01*
X212925000Y-85675000D02*
X214575000Y-87325000D01*
X149287500Y-65900000D02*
X136450000Y-65900000D01*
X147400000Y-79725000D02*
X149275000Y-79725000D01*
X214575000Y-87325000D02*
X214575000Y-137650000D01*
%TO.N,/K2_SWITCH*%
X211725000Y-109150000D02*
X211275000Y-108700000D01*
X152800000Y-108725000D02*
X149325000Y-105250000D01*
X210750000Y-108700000D02*
X210725000Y-108725000D01*
X136150000Y-101475000D02*
X136950000Y-102275000D01*
X149325000Y-105250000D02*
X149325000Y-102275000D01*
X136150000Y-88900000D02*
X136150000Y-101475000D01*
X211725000Y-134200000D02*
X211725000Y-109150000D01*
X149387500Y-88500000D02*
X136550000Y-88500000D01*
X136550000Y-88500000D02*
X136150000Y-88900000D01*
X136950000Y-102275000D02*
X149325000Y-102275000D01*
X211275000Y-108700000D02*
X210750000Y-108700000D01*
X211125000Y-134800000D02*
X211725000Y-134200000D01*
X210725000Y-108725000D02*
X152800000Y-108725000D01*
%TO.N,/K3_SWITCH*%
X148962500Y-112275000D02*
X136800000Y-112275000D01*
X137275000Y-126100000D02*
X149000000Y-126100000D01*
X137200000Y-126175000D02*
X137275000Y-126100000D01*
X136400000Y-112675000D02*
X136400000Y-125375000D01*
X136800000Y-112275000D02*
X136400000Y-112675000D01*
X153475000Y-130575000D02*
X149000000Y-126100000D01*
X136400000Y-125375000D02*
X137200000Y-126175000D01*
X208950000Y-130575000D02*
X153475000Y-130575000D01*
%TO.N,/K4_SWITCH*%
X136450000Y-133175000D02*
X136000000Y-133625000D01*
X215950000Y-130750000D02*
X218340000Y-128360000D01*
X218340000Y-128360000D02*
X226700000Y-128360000D01*
X149137500Y-133175000D02*
X136450000Y-133175000D01*
X136575000Y-147225000D02*
X148800000Y-147225000D01*
X215950000Y-149275000D02*
X215950000Y-130750000D01*
X149150000Y-146875000D02*
X152825000Y-150550000D01*
X136000000Y-146650000D02*
X136575000Y-147225000D01*
X136000000Y-133625000D02*
X136000000Y-146650000D01*
X214675000Y-150550000D02*
X215950000Y-149275000D01*
X152825000Y-150550000D02*
X214675000Y-150550000D01*
%TO.N,/K6_SWITCH*%
X217100000Y-121975000D02*
X217175000Y-121900000D01*
X177425000Y-66275000D02*
X177425000Y-78400000D01*
X177425000Y-78400000D02*
X177350000Y-78475000D01*
X178725000Y-79850000D02*
X179625000Y-79850000D01*
X196350000Y-84200000D02*
X214050000Y-84200000D01*
X179650000Y-79825000D02*
X191975000Y-79825000D01*
X191987500Y-66100000D02*
X177600000Y-66100000D01*
X217175000Y-121900000D02*
X222775000Y-121900000D01*
X191975000Y-79825000D02*
X196350000Y-84200000D01*
X177600000Y-66100000D02*
X177425000Y-66275000D01*
X214050000Y-84200000D02*
X216375000Y-86525000D01*
X179625000Y-79850000D02*
X179650000Y-79825000D01*
X216375000Y-121250000D02*
X217100000Y-121975000D01*
X177350000Y-78475000D02*
X178725000Y-79850000D01*
X216375000Y-86525000D02*
X216375000Y-121250000D01*
%TO.N,/K7_SWITCH*%
X213200000Y-107825000D02*
X213200000Y-119375000D01*
X191950000Y-102300000D02*
X196650000Y-107000000D01*
X192050000Y-88800000D02*
X179975000Y-88800000D01*
X179975000Y-88800000D02*
X179500000Y-89275000D01*
X181400000Y-102300000D02*
X191950000Y-102300000D01*
X181150000Y-102550000D02*
X181400000Y-102300000D01*
X179500000Y-100900000D02*
X181150000Y-102550000D01*
X196650000Y-107000000D02*
X212375000Y-107000000D01*
X212375000Y-107000000D02*
X213200000Y-107825000D01*
X179500000Y-89275000D02*
X179500000Y-100900000D01*
%TO.N,/K8_SWITCH*%
X208775000Y-128525000D02*
X208775000Y-117750000D01*
X178925000Y-112525000D02*
X177775000Y-113675000D01*
X191500000Y-126200000D02*
X191500000Y-128075000D01*
X177775000Y-113675000D02*
X177775000Y-125100000D01*
X191575000Y-112525000D02*
X178925000Y-112525000D01*
X191500000Y-128075000D02*
X192775000Y-129350000D01*
X207950000Y-129350000D02*
X208775000Y-128525000D01*
X192775000Y-129350000D02*
X207950000Y-129350000D01*
X177775000Y-125100000D02*
X178875000Y-126200000D01*
X178875000Y-126200000D02*
X191500000Y-126200000D01*
X208775000Y-117750000D02*
X209450000Y-117075000D01*
%TO.N,/K9_SWITCH*%
X178950000Y-146250000D02*
X179600000Y-146900000D01*
X179400000Y-133375000D02*
X178950000Y-133825000D01*
X191525000Y-133375000D02*
X179400000Y-133375000D01*
X179600000Y-146900000D02*
X191525000Y-146900000D01*
X178950000Y-133825000D02*
X178950000Y-146250000D01*
D20*
%TO.N,/K1_NO*%
X159475000Y-77150000D02*
X165100000Y-71525000D01*
X159475000Y-79725000D02*
X159475000Y-77150000D01*
X168300000Y-61800000D02*
X214650000Y-61800000D01*
X165100000Y-65000000D02*
X168300000Y-61800000D01*
X165100000Y-71525000D02*
X165100000Y-65000000D01*
X214650000Y-61800000D02*
X223160000Y-70310000D01*
X223160000Y-70310000D02*
X226700000Y-70310000D01*
%TO.N,/K6_NO*%
X202175000Y-79825000D02*
X215075000Y-79825000D01*
X222350000Y-87100000D02*
X222490000Y-86960000D01*
X222490000Y-86960000D02*
X226700000Y-86960000D01*
X215075000Y-79825000D02*
X222350000Y-87100000D01*
%TD*%
M02*
