M48
; DRILL file {KiCad 9.0.8-9.0.8~ubuntu22.04.1} date 2026-04-02T10:10:10+0100
; FORMAT={-:-/ absolute / inch / decimal}
; #@! TF.CreationDate,2026-04-02T10:10:10+01:00
; #@! TF.GenerationSoftware,Kicad,Pcbnew,9.0.8-9.0.8~ubuntu22.04.1
; #@! TF.FileFunction,Plated,1,4,PTH
FMAT,2
INCH
; #@! TA.AperFunction,Plated,PTH,ViaDrill
T1C0.0197
; #@! TA.AperFunction,Plated,PTH,ComponentDrill
T2C0.0551
; #@! TA.AperFunction,Plated,PTH,ComponentDrill
T3C0.0591
; #@! TA.AperFunction,Plated,PTH,ComponentDrill
T4C0.0630
%
G90
G05
T1
X8.2264Y-5.1407
X8.2461Y-4.6093
X8.312Y-5.3071
X8.3937Y-4.6998
X8.4213Y-5.4459
X8.7707Y-4.7992
T2
X5.7677Y-4.7677
X5.7736Y-5.5856
X5.7785Y-2.9419
X5.7785Y-6.4075
X5.7805Y-3.8297
X5.8661Y-4.5709
X5.8661Y-4.9646
X5.872Y-5.3888
X5.872Y-5.7825
X5.877Y-2.7451
X5.877Y-3.1388
X5.877Y-6.2106
X5.877Y-6.6043
X5.8789Y-3.6329
X5.8789Y-4.0266
X6.2677Y-4.5709
X6.2677Y-4.9646
X6.2736Y-5.3888
X6.2736Y-5.7825
X6.2785Y-2.7451
X6.2785Y-3.1388
X6.2785Y-6.2106
X6.2785Y-6.6043
X6.2805Y-3.6329
X6.2805Y-4.0266
X7.4409Y-4.7717
X7.4419Y-5.5866
X7.4439Y-6.4163
X7.4587Y-3.8307
X7.4596Y-2.9459
X7.5394Y-4.5748
X7.5394Y-4.9685
X7.5404Y-5.3898
X7.5404Y-5.7835
X7.5423Y-6.2195
X7.5423Y-6.6132
X7.5571Y-3.6339
X7.5571Y-4.0276
X7.5581Y-2.749
X7.5581Y-3.1427
X7.9409Y-4.5748
X7.9409Y-4.9685
X7.9419Y-5.3898
X7.9419Y-5.7835
X7.9439Y-6.2195
X7.9439Y-6.6132
X7.9587Y-3.6339
X7.9587Y-4.0276
X7.9596Y-2.749
X7.9596Y-3.1427
T3
X8.9252Y-2.2437
X8.9252Y-2.3748
X8.9252Y-2.5059
X8.9252Y-2.637
X8.9252Y-2.7681
X8.9252Y-2.8992
X8.9252Y-3.0303
X8.9252Y-3.1614
X8.9252Y-3.2925
X8.9252Y-3.4236
X8.9252Y-3.5547
X8.9252Y-3.6858
X8.9252Y-3.8169
X8.9252Y-3.948
X8.9252Y-4.9224
X8.9252Y-5.0535
X8.9252Y-5.1846
X8.9252Y-5.3157
X8.9252Y-5.4469
X8.9252Y-5.578
X8.9252Y-5.7091
X8.9252Y-5.8402
X8.9252Y-5.9713
X8.9252Y-6.1024
X8.9252Y-6.2335
X8.9252Y-6.3646
X8.9252Y-6.4957
X8.9252Y-6.6268
X9.1142Y-2.2437
X9.1142Y-2.3748
X9.1142Y-2.5059
X9.1142Y-2.637
X9.1142Y-2.7681
X9.1142Y-2.8992
X9.1142Y-3.0303
X9.1142Y-3.1614
X9.1142Y-3.2925
X9.1142Y-3.4236
X9.1142Y-3.5547
X9.1142Y-3.6858
X9.1142Y-3.8169
X9.1142Y-3.948
X9.1142Y-4.9224
X9.1142Y-5.0535
X9.1142Y-5.1846
X9.1142Y-5.3157
X9.1142Y-5.4469
X9.1142Y-5.578
X9.1142Y-5.7091
X9.1142Y-5.8402
X9.1142Y-5.9713
X9.1142Y-6.1024
X9.1142Y-6.2335
X9.1142Y-6.3646
X9.1142Y-6.4957
X9.1142Y-6.6268
T4
X4.9524Y-5.5197
X4.9524Y-5.6535
X4.9533Y-4.6969
X4.9533Y-4.8307
X4.9602Y-6.3406
X4.9602Y-6.4744
X4.9652Y-2.8888
X4.9652Y-3.0226
X4.9652Y-3.7707
X4.9652Y-3.9045
X5.4827Y-5.5197
X5.4827Y-5.6535
X5.4837Y-4.6969
X5.4837Y-4.8307
X5.4906Y-6.3406
X5.4906Y-6.4744
X5.4955Y-2.8888
X5.4955Y-3.0226
X5.4955Y-3.7707
X5.4955Y-3.9045
X5.7654Y-2.0522
X5.7654Y-2.186
X6.2957Y-2.0522
X6.2957Y-2.186
X6.6295Y-4.7047
X6.6295Y-4.8386
X6.6305Y-5.5236
X6.6305Y-5.6575
X6.6305Y-6.3543
X6.6305Y-6.4882
X6.6453Y-2.878
X6.6453Y-3.0118
X6.6453Y-3.7667
X6.6453Y-3.9006
X7.1598Y-4.7047
X7.1598Y-4.8386
X7.1608Y-5.5236
X7.1608Y-5.6575
X7.1608Y-6.3543
X7.1608Y-6.4882
X7.1756Y-2.878
X7.1756Y-3.0118
X7.1756Y-3.7667
X7.1756Y-3.9006
X7.4415Y-2.0522
X7.4415Y-2.186
X7.9719Y-2.0522
X7.9719Y-2.186
M30
