%TF.GenerationSoftware,KiCad,Pcbnew,9.0.8-9.0.8~ubuntu22.04.1*%
%TF.CreationDate,2026-04-02T10:10:10+01:00*%
%TF.ProjectId,Relay_Zom_V1,52656c61-795f-45a6-9f6d-5f56312e6b69,rev?*%
%TF.SameCoordinates,Original*%
%TF.FileFunction,Legend,Top*%
%TF.FilePolarity,Positive*%
%FSLAX46Y46*%
G04 Gerber Fmt 4.6, Leading zero omitted, Abs format (unit mm)*
G04 Created by KiCad (PCBNEW 9.0.8-9.0.8~ubuntu22.04.1) date 2026-04-02 10:10:10*
%MOMM*%
%LPD*%
G01*
G04 APERTURE LIST*
G04 Aperture macros list*
%AMRoundRect*
0 Rectangle with rounded corners*
0 $1 Rounding radius*
0 $2 $3 $4 $5 $6 $7 $8 $9 X,Y pos of 4 corners*
0 Add a 4 corners polygon primitive as box body*
4,1,4,$2,$3,$4,$5,$6,$7,$8,$9,$2,$3,0*
0 Add four circle primitives for the rounded corners*
1,1,$1+$1,$2,$3*
1,1,$1+$1,$4,$5*
1,1,$1+$1,$6,$7*
1,1,$1+$1,$8,$9*
0 Add four rect primitives between the rounded corners*
20,1,$1+$1,$2,$3,$4,$5,0*
20,1,$1+$1,$4,$5,$6,$7,0*
20,1,$1+$1,$6,$7,$8,$9,0*
20,1,$1+$1,$8,$9,$2,$3,0*%
G04 Aperture macros list end*
%ADD10C,0.200000*%
%ADD11C,0.150000*%
%ADD12C,0.254000*%
%ADD13C,0.100000*%
%ADD14C,0.120000*%
%ADD15C,4.300000*%
%ADD16C,3.000000*%
%ADD17C,2.400000*%
%ADD18RoundRect,0.250000X0.262500X0.450000X-0.262500X0.450000X-0.262500X-0.450000X0.262500X-0.450000X0*%
%ADD19RoundRect,0.243750X-0.243750X-0.456250X0.243750X-0.456250X0.243750X0.456250X-0.243750X0.456250X0*%
%ADD20C,5.000000*%
%ADD21O,3.000000X2.000000*%
%ADD22R,3.000000X2.000000*%
G04 APERTURE END LIST*
D10*
X147167854Y-171880062D02*
X148501187Y-171880062D01*
X148501187Y-171880062D02*
X147167854Y-173880062D01*
X147167854Y-173880062D02*
X148501187Y-173880062D01*
X149548806Y-173880062D02*
X149358330Y-173784824D01*
X149358330Y-173784824D02*
X149263092Y-173689585D01*
X149263092Y-173689585D02*
X149167854Y-173499109D01*
X149167854Y-173499109D02*
X149167854Y-172927681D01*
X149167854Y-172927681D02*
X149263092Y-172737204D01*
X149263092Y-172737204D02*
X149358330Y-172641966D01*
X149358330Y-172641966D02*
X149548806Y-172546728D01*
X149548806Y-172546728D02*
X149834521Y-172546728D01*
X149834521Y-172546728D02*
X150024997Y-172641966D01*
X150024997Y-172641966D02*
X150120235Y-172737204D01*
X150120235Y-172737204D02*
X150215473Y-172927681D01*
X150215473Y-172927681D02*
X150215473Y-173499109D01*
X150215473Y-173499109D02*
X150120235Y-173689585D01*
X150120235Y-173689585D02*
X150024997Y-173784824D01*
X150024997Y-173784824D02*
X149834521Y-173880062D01*
X149834521Y-173880062D02*
X149548806Y-173880062D01*
X151072616Y-173880062D02*
X151072616Y-172546728D01*
X151072616Y-172737204D02*
X151167854Y-172641966D01*
X151167854Y-172641966D02*
X151358330Y-172546728D01*
X151358330Y-172546728D02*
X151644045Y-172546728D01*
X151644045Y-172546728D02*
X151834521Y-172641966D01*
X151834521Y-172641966D02*
X151929759Y-172832443D01*
X151929759Y-172832443D02*
X151929759Y-173880062D01*
X151929759Y-172832443D02*
X152024997Y-172641966D01*
X152024997Y-172641966D02*
X152215473Y-172546728D01*
X152215473Y-172546728D02*
X152501187Y-172546728D01*
X152501187Y-172546728D02*
X152691664Y-172641966D01*
X152691664Y-172641966D02*
X152786902Y-172832443D01*
X152786902Y-172832443D02*
X152786902Y-173880062D01*
X153739283Y-173880062D02*
X153739283Y-171880062D01*
X153739283Y-172641966D02*
X153929759Y-172546728D01*
X153929759Y-172546728D02*
X154310712Y-172546728D01*
X154310712Y-172546728D02*
X154501188Y-172641966D01*
X154501188Y-172641966D02*
X154596426Y-172737204D01*
X154596426Y-172737204D02*
X154691664Y-172927681D01*
X154691664Y-172927681D02*
X154691664Y-173499109D01*
X154691664Y-173499109D02*
X154596426Y-173689585D01*
X154596426Y-173689585D02*
X154501188Y-173784824D01*
X154501188Y-173784824D02*
X154310712Y-173880062D01*
X154310712Y-173880062D02*
X153929759Y-173880062D01*
X153929759Y-173880062D02*
X153739283Y-173784824D01*
X155548807Y-173880062D02*
X155548807Y-172546728D01*
X155548807Y-171880062D02*
X155453569Y-171975300D01*
X155453569Y-171975300D02*
X155548807Y-172070538D01*
X155548807Y-172070538D02*
X155644045Y-171975300D01*
X155644045Y-171975300D02*
X155548807Y-171880062D01*
X155548807Y-171880062D02*
X155548807Y-172070538D01*
X157263093Y-173784824D02*
X157072617Y-173880062D01*
X157072617Y-173880062D02*
X156691664Y-173880062D01*
X156691664Y-173880062D02*
X156501188Y-173784824D01*
X156501188Y-173784824D02*
X156405950Y-173594347D01*
X156405950Y-173594347D02*
X156405950Y-172832443D01*
X156405950Y-172832443D02*
X156501188Y-172641966D01*
X156501188Y-172641966D02*
X156691664Y-172546728D01*
X156691664Y-172546728D02*
X157072617Y-172546728D01*
X157072617Y-172546728D02*
X157263093Y-172641966D01*
X157263093Y-172641966D02*
X157358331Y-172832443D01*
X157358331Y-172832443D02*
X157358331Y-173022919D01*
X157358331Y-173022919D02*
X156405950Y-173213395D01*
X160882141Y-173880062D02*
X160215474Y-172927681D01*
X159739284Y-173880062D02*
X159739284Y-171880062D01*
X159739284Y-171880062D02*
X160501189Y-171880062D01*
X160501189Y-171880062D02*
X160691665Y-171975300D01*
X160691665Y-171975300D02*
X160786903Y-172070538D01*
X160786903Y-172070538D02*
X160882141Y-172261014D01*
X160882141Y-172261014D02*
X160882141Y-172546728D01*
X160882141Y-172546728D02*
X160786903Y-172737204D01*
X160786903Y-172737204D02*
X160691665Y-172832443D01*
X160691665Y-172832443D02*
X160501189Y-172927681D01*
X160501189Y-172927681D02*
X159739284Y-172927681D01*
X162501189Y-173784824D02*
X162310713Y-173880062D01*
X162310713Y-173880062D02*
X161929760Y-173880062D01*
X161929760Y-173880062D02*
X161739284Y-173784824D01*
X161739284Y-173784824D02*
X161644046Y-173594347D01*
X161644046Y-173594347D02*
X161644046Y-172832443D01*
X161644046Y-172832443D02*
X161739284Y-172641966D01*
X161739284Y-172641966D02*
X161929760Y-172546728D01*
X161929760Y-172546728D02*
X162310713Y-172546728D01*
X162310713Y-172546728D02*
X162501189Y-172641966D01*
X162501189Y-172641966D02*
X162596427Y-172832443D01*
X162596427Y-172832443D02*
X162596427Y-173022919D01*
X162596427Y-173022919D02*
X161644046Y-173213395D01*
X163739284Y-173880062D02*
X163548808Y-173784824D01*
X163548808Y-173784824D02*
X163453570Y-173594347D01*
X163453570Y-173594347D02*
X163453570Y-171880062D01*
X165358332Y-173880062D02*
X165358332Y-172832443D01*
X165358332Y-172832443D02*
X165263094Y-172641966D01*
X165263094Y-172641966D02*
X165072618Y-172546728D01*
X165072618Y-172546728D02*
X164691665Y-172546728D01*
X164691665Y-172546728D02*
X164501189Y-172641966D01*
X165358332Y-173784824D02*
X165167856Y-173880062D01*
X165167856Y-173880062D02*
X164691665Y-173880062D01*
X164691665Y-173880062D02*
X164501189Y-173784824D01*
X164501189Y-173784824D02*
X164405951Y-173594347D01*
X164405951Y-173594347D02*
X164405951Y-173403871D01*
X164405951Y-173403871D02*
X164501189Y-173213395D01*
X164501189Y-173213395D02*
X164691665Y-173118157D01*
X164691665Y-173118157D02*
X165167856Y-173118157D01*
X165167856Y-173118157D02*
X165358332Y-173022919D01*
X166120237Y-172546728D02*
X166596427Y-173880062D01*
X167072618Y-172546728D02*
X166596427Y-173880062D01*
X166596427Y-173880062D02*
X166405951Y-174356252D01*
X166405951Y-174356252D02*
X166310713Y-174451490D01*
X166310713Y-174451490D02*
X166120237Y-174546728D01*
X167739285Y-173784824D02*
X167929761Y-173880062D01*
X167929761Y-173880062D02*
X168310713Y-173880062D01*
X168310713Y-173880062D02*
X168501190Y-173784824D01*
X168501190Y-173784824D02*
X168596428Y-173594347D01*
X168596428Y-173594347D02*
X168596428Y-173499109D01*
X168596428Y-173499109D02*
X168501190Y-173308633D01*
X168501190Y-173308633D02*
X168310713Y-173213395D01*
X168310713Y-173213395D02*
X168024999Y-173213395D01*
X168024999Y-173213395D02*
X167834523Y-173118157D01*
X167834523Y-173118157D02*
X167739285Y-172927681D01*
X167739285Y-172927681D02*
X167739285Y-172832443D01*
X167739285Y-172832443D02*
X167834523Y-172641966D01*
X167834523Y-172641966D02*
X168024999Y-172546728D01*
X168024999Y-172546728D02*
X168310713Y-172546728D01*
X168310713Y-172546728D02*
X168501190Y-172641966D01*
X170691667Y-171880062D02*
X171358333Y-173880062D01*
X171358333Y-173880062D02*
X172025000Y-171880062D01*
X173739286Y-173880062D02*
X172596429Y-173880062D01*
X173167857Y-173880062D02*
X173167857Y-171880062D01*
X173167857Y-171880062D02*
X172977381Y-172165776D01*
X172977381Y-172165776D02*
X172786905Y-172356252D01*
X172786905Y-172356252D02*
X172596429Y-172451490D01*
X177263096Y-173689585D02*
X177167858Y-173784824D01*
X177167858Y-173784824D02*
X176882144Y-173880062D01*
X176882144Y-173880062D02*
X176691668Y-173880062D01*
X176691668Y-173880062D02*
X176405953Y-173784824D01*
X176405953Y-173784824D02*
X176215477Y-173594347D01*
X176215477Y-173594347D02*
X176120239Y-173403871D01*
X176120239Y-173403871D02*
X176025001Y-173022919D01*
X176025001Y-173022919D02*
X176025001Y-172737204D01*
X176025001Y-172737204D02*
X176120239Y-172356252D01*
X176120239Y-172356252D02*
X176215477Y-172165776D01*
X176215477Y-172165776D02*
X176405953Y-171975300D01*
X176405953Y-171975300D02*
X176691668Y-171880062D01*
X176691668Y-171880062D02*
X176882144Y-171880062D01*
X176882144Y-171880062D02*
X177167858Y-171975300D01*
X177167858Y-171975300D02*
X177263096Y-172070538D01*
X178501191Y-171880062D02*
X178882144Y-171880062D01*
X178882144Y-171880062D02*
X179072620Y-171975300D01*
X179072620Y-171975300D02*
X179263096Y-172165776D01*
X179263096Y-172165776D02*
X179358334Y-172546728D01*
X179358334Y-172546728D02*
X179358334Y-173213395D01*
X179358334Y-173213395D02*
X179263096Y-173594347D01*
X179263096Y-173594347D02*
X179072620Y-173784824D01*
X179072620Y-173784824D02*
X178882144Y-173880062D01*
X178882144Y-173880062D02*
X178501191Y-173880062D01*
X178501191Y-173880062D02*
X178310715Y-173784824D01*
X178310715Y-173784824D02*
X178120239Y-173594347D01*
X178120239Y-173594347D02*
X178025001Y-173213395D01*
X178025001Y-173213395D02*
X178025001Y-172546728D01*
X178025001Y-172546728D02*
X178120239Y-172165776D01*
X178120239Y-172165776D02*
X178310715Y-171975300D01*
X178310715Y-171975300D02*
X178501191Y-171880062D01*
X180215477Y-173880062D02*
X180215477Y-171880062D01*
X180215477Y-171880062D02*
X180977382Y-171880062D01*
X180977382Y-171880062D02*
X181167858Y-171975300D01*
X181167858Y-171975300D02*
X181263096Y-172070538D01*
X181263096Y-172070538D02*
X181358334Y-172261014D01*
X181358334Y-172261014D02*
X181358334Y-172546728D01*
X181358334Y-172546728D02*
X181263096Y-172737204D01*
X181263096Y-172737204D02*
X181167858Y-172832443D01*
X181167858Y-172832443D02*
X180977382Y-172927681D01*
X180977382Y-172927681D02*
X180215477Y-172927681D01*
X182596429Y-172927681D02*
X182596429Y-173880062D01*
X181929763Y-171880062D02*
X182596429Y-172927681D01*
X182596429Y-172927681D02*
X183263096Y-171880062D01*
X185072620Y-173880062D02*
X184405953Y-172927681D01*
X183929763Y-173880062D02*
X183929763Y-171880062D01*
X183929763Y-171880062D02*
X184691668Y-171880062D01*
X184691668Y-171880062D02*
X184882144Y-171975300D01*
X184882144Y-171975300D02*
X184977382Y-172070538D01*
X184977382Y-172070538D02*
X185072620Y-172261014D01*
X185072620Y-172261014D02*
X185072620Y-172546728D01*
X185072620Y-172546728D02*
X184977382Y-172737204D01*
X184977382Y-172737204D02*
X184882144Y-172832443D01*
X184882144Y-172832443D02*
X184691668Y-172927681D01*
X184691668Y-172927681D02*
X183929763Y-172927681D01*
X185929763Y-173880062D02*
X185929763Y-171880062D01*
X187929763Y-171975300D02*
X187739287Y-171880062D01*
X187739287Y-171880062D02*
X187453573Y-171880062D01*
X187453573Y-171880062D02*
X187167858Y-171975300D01*
X187167858Y-171975300D02*
X186977382Y-172165776D01*
X186977382Y-172165776D02*
X186882144Y-172356252D01*
X186882144Y-172356252D02*
X186786906Y-172737204D01*
X186786906Y-172737204D02*
X186786906Y-173022919D01*
X186786906Y-173022919D02*
X186882144Y-173403871D01*
X186882144Y-173403871D02*
X186977382Y-173594347D01*
X186977382Y-173594347D02*
X187167858Y-173784824D01*
X187167858Y-173784824D02*
X187453573Y-173880062D01*
X187453573Y-173880062D02*
X187644049Y-173880062D01*
X187644049Y-173880062D02*
X187929763Y-173784824D01*
X187929763Y-173784824D02*
X188025001Y-173689585D01*
X188025001Y-173689585D02*
X188025001Y-173022919D01*
X188025001Y-173022919D02*
X187644049Y-173022919D01*
X188882144Y-173880062D02*
X188882144Y-171880062D01*
X188882144Y-172832443D02*
X190025001Y-172832443D01*
X190025001Y-173880062D02*
X190025001Y-171880062D01*
X190691668Y-171880062D02*
X191834525Y-171880062D01*
X191263096Y-173880062D02*
X191263096Y-171880062D01*
X193929764Y-172070538D02*
X194025002Y-171975300D01*
X194025002Y-171975300D02*
X194215478Y-171880062D01*
X194215478Y-171880062D02*
X194691669Y-171880062D01*
X194691669Y-171880062D02*
X194882145Y-171975300D01*
X194882145Y-171975300D02*
X194977383Y-172070538D01*
X194977383Y-172070538D02*
X195072621Y-172261014D01*
X195072621Y-172261014D02*
X195072621Y-172451490D01*
X195072621Y-172451490D02*
X194977383Y-172737204D01*
X194977383Y-172737204D02*
X193834526Y-173880062D01*
X193834526Y-173880062D02*
X195072621Y-173880062D01*
X196310716Y-171880062D02*
X196501193Y-171880062D01*
X196501193Y-171880062D02*
X196691669Y-171975300D01*
X196691669Y-171975300D02*
X196786907Y-172070538D01*
X196786907Y-172070538D02*
X196882145Y-172261014D01*
X196882145Y-172261014D02*
X196977383Y-172641966D01*
X196977383Y-172641966D02*
X196977383Y-173118157D01*
X196977383Y-173118157D02*
X196882145Y-173499109D01*
X196882145Y-173499109D02*
X196786907Y-173689585D01*
X196786907Y-173689585D02*
X196691669Y-173784824D01*
X196691669Y-173784824D02*
X196501193Y-173880062D01*
X196501193Y-173880062D02*
X196310716Y-173880062D01*
X196310716Y-173880062D02*
X196120240Y-173784824D01*
X196120240Y-173784824D02*
X196025002Y-173689585D01*
X196025002Y-173689585D02*
X195929764Y-173499109D01*
X195929764Y-173499109D02*
X195834526Y-173118157D01*
X195834526Y-173118157D02*
X195834526Y-172641966D01*
X195834526Y-172641966D02*
X195929764Y-172261014D01*
X195929764Y-172261014D02*
X196025002Y-172070538D01*
X196025002Y-172070538D02*
X196120240Y-171975300D01*
X196120240Y-171975300D02*
X196310716Y-171880062D01*
X197739288Y-172070538D02*
X197834526Y-171975300D01*
X197834526Y-171975300D02*
X198025002Y-171880062D01*
X198025002Y-171880062D02*
X198501193Y-171880062D01*
X198501193Y-171880062D02*
X198691669Y-171975300D01*
X198691669Y-171975300D02*
X198786907Y-172070538D01*
X198786907Y-172070538D02*
X198882145Y-172261014D01*
X198882145Y-172261014D02*
X198882145Y-172451490D01*
X198882145Y-172451490D02*
X198786907Y-172737204D01*
X198786907Y-172737204D02*
X197644050Y-173880062D01*
X197644050Y-173880062D02*
X198882145Y-173880062D01*
X200596431Y-171880062D02*
X200215478Y-171880062D01*
X200215478Y-171880062D02*
X200025002Y-171975300D01*
X200025002Y-171975300D02*
X199929764Y-172070538D01*
X199929764Y-172070538D02*
X199739288Y-172356252D01*
X199739288Y-172356252D02*
X199644050Y-172737204D01*
X199644050Y-172737204D02*
X199644050Y-173499109D01*
X199644050Y-173499109D02*
X199739288Y-173689585D01*
X199739288Y-173689585D02*
X199834526Y-173784824D01*
X199834526Y-173784824D02*
X200025002Y-173880062D01*
X200025002Y-173880062D02*
X200405955Y-173880062D01*
X200405955Y-173880062D02*
X200596431Y-173784824D01*
X200596431Y-173784824D02*
X200691669Y-173689585D01*
X200691669Y-173689585D02*
X200786907Y-173499109D01*
X200786907Y-173499109D02*
X200786907Y-173022919D01*
X200786907Y-173022919D02*
X200691669Y-172832443D01*
X200691669Y-172832443D02*
X200596431Y-172737204D01*
X200596431Y-172737204D02*
X200405955Y-172641966D01*
X200405955Y-172641966D02*
X200025002Y-172641966D01*
X200025002Y-172641966D02*
X199834526Y-172737204D01*
X199834526Y-172737204D02*
X199739288Y-172832443D01*
X199739288Y-172832443D02*
X199644050Y-173022919D01*
X157120238Y-177099950D02*
X157120238Y-175099950D01*
X157120238Y-175099950D02*
X157596428Y-175099950D01*
X157596428Y-175099950D02*
X157882143Y-175195188D01*
X157882143Y-175195188D02*
X158072619Y-175385664D01*
X158072619Y-175385664D02*
X158167857Y-175576140D01*
X158167857Y-175576140D02*
X158263095Y-175957092D01*
X158263095Y-175957092D02*
X158263095Y-176242807D01*
X158263095Y-176242807D02*
X158167857Y-176623759D01*
X158167857Y-176623759D02*
X158072619Y-176814235D01*
X158072619Y-176814235D02*
X157882143Y-177004712D01*
X157882143Y-177004712D02*
X157596428Y-177099950D01*
X157596428Y-177099950D02*
X157120238Y-177099950D01*
X159120238Y-176909473D02*
X159215476Y-177004712D01*
X159215476Y-177004712D02*
X159120238Y-177099950D01*
X159120238Y-177099950D02*
X159025000Y-177004712D01*
X159025000Y-177004712D02*
X159120238Y-176909473D01*
X159120238Y-176909473D02*
X159120238Y-177099950D01*
X160072619Y-177099950D02*
X160072619Y-175099950D01*
X160072619Y-175099950D02*
X160739286Y-176528521D01*
X160739286Y-176528521D02*
X161405952Y-175099950D01*
X161405952Y-175099950D02*
X161405952Y-177099950D01*
X162263095Y-176528521D02*
X163215476Y-176528521D01*
X162072619Y-177099950D02*
X162739285Y-175099950D01*
X162739285Y-175099950D02*
X163405952Y-177099950D01*
X165120238Y-175195188D02*
X164929762Y-175099950D01*
X164929762Y-175099950D02*
X164644048Y-175099950D01*
X164644048Y-175099950D02*
X164358333Y-175195188D01*
X164358333Y-175195188D02*
X164167857Y-175385664D01*
X164167857Y-175385664D02*
X164072619Y-175576140D01*
X164072619Y-175576140D02*
X163977381Y-175957092D01*
X163977381Y-175957092D02*
X163977381Y-176242807D01*
X163977381Y-176242807D02*
X164072619Y-176623759D01*
X164072619Y-176623759D02*
X164167857Y-176814235D01*
X164167857Y-176814235D02*
X164358333Y-177004712D01*
X164358333Y-177004712D02*
X164644048Y-177099950D01*
X164644048Y-177099950D02*
X164834524Y-177099950D01*
X164834524Y-177099950D02*
X165120238Y-177004712D01*
X165120238Y-177004712D02*
X165215476Y-176909473D01*
X165215476Y-176909473D02*
X165215476Y-176242807D01*
X165215476Y-176242807D02*
X164834524Y-176242807D01*
X166072619Y-175099950D02*
X166072619Y-176718997D01*
X166072619Y-176718997D02*
X166167857Y-176909473D01*
X166167857Y-176909473D02*
X166263095Y-177004712D01*
X166263095Y-177004712D02*
X166453571Y-177099950D01*
X166453571Y-177099950D02*
X166834524Y-177099950D01*
X166834524Y-177099950D02*
X167025000Y-177004712D01*
X167025000Y-177004712D02*
X167120238Y-176909473D01*
X167120238Y-176909473D02*
X167215476Y-176718997D01*
X167215476Y-176718997D02*
X167215476Y-175099950D01*
X168167857Y-177099950D02*
X168167857Y-175099950D01*
X170263095Y-177099950D02*
X169596428Y-176147569D01*
X169120238Y-177099950D02*
X169120238Y-175099950D01*
X169120238Y-175099950D02*
X169882143Y-175099950D01*
X169882143Y-175099950D02*
X170072619Y-175195188D01*
X170072619Y-175195188D02*
X170167857Y-175290426D01*
X170167857Y-175290426D02*
X170263095Y-175480902D01*
X170263095Y-175480902D02*
X170263095Y-175766616D01*
X170263095Y-175766616D02*
X170167857Y-175957092D01*
X170167857Y-175957092D02*
X170072619Y-176052331D01*
X170072619Y-176052331D02*
X169882143Y-176147569D01*
X169882143Y-176147569D02*
X169120238Y-176147569D01*
X171120238Y-176052331D02*
X171786905Y-176052331D01*
X172072619Y-177099950D02*
X171120238Y-177099950D01*
X171120238Y-177099950D02*
X171120238Y-175099950D01*
X171120238Y-175099950D02*
X172072619Y-175099950D01*
X174453572Y-176052331D02*
X175120239Y-176052331D01*
X175405953Y-177099950D02*
X174453572Y-177099950D01*
X174453572Y-177099950D02*
X174453572Y-175099950D01*
X174453572Y-175099950D02*
X175405953Y-175099950D01*
X175977382Y-175099950D02*
X176644048Y-177099950D01*
X176644048Y-177099950D02*
X177310715Y-175099950D01*
X178644049Y-176052331D02*
X178929763Y-176147569D01*
X178929763Y-176147569D02*
X179025001Y-176242807D01*
X179025001Y-176242807D02*
X179120239Y-176433283D01*
X179120239Y-176433283D02*
X179120239Y-176718997D01*
X179120239Y-176718997D02*
X179025001Y-176909473D01*
X179025001Y-176909473D02*
X178929763Y-177004712D01*
X178929763Y-177004712D02*
X178739287Y-177099950D01*
X178739287Y-177099950D02*
X177977382Y-177099950D01*
X177977382Y-177099950D02*
X177977382Y-175099950D01*
X177977382Y-175099950D02*
X178644049Y-175099950D01*
X178644049Y-175099950D02*
X178834525Y-175195188D01*
X178834525Y-175195188D02*
X178929763Y-175290426D01*
X178929763Y-175290426D02*
X179025001Y-175480902D01*
X179025001Y-175480902D02*
X179025001Y-175671378D01*
X179025001Y-175671378D02*
X178929763Y-175861854D01*
X178929763Y-175861854D02*
X178834525Y-175957092D01*
X178834525Y-175957092D02*
X178644049Y-176052331D01*
X178644049Y-176052331D02*
X177977382Y-176052331D01*
X179977382Y-177099950D02*
X179977382Y-175099950D01*
X179977382Y-175099950D02*
X180644049Y-176528521D01*
X180644049Y-176528521D02*
X181310715Y-175099950D01*
X181310715Y-175099950D02*
X181310715Y-177099950D01*
X182072620Y-175099950D02*
X182548810Y-177099950D01*
X182548810Y-177099950D02*
X182929763Y-175671378D01*
X182929763Y-175671378D02*
X183310715Y-177099950D01*
X183310715Y-177099950D02*
X183786906Y-175099950D01*
X184548810Y-176909473D02*
X184644048Y-177004712D01*
X184644048Y-177004712D02*
X184548810Y-177099950D01*
X184548810Y-177099950D02*
X184453572Y-177004712D01*
X184453572Y-177004712D02*
X184548810Y-176909473D01*
X184548810Y-176909473D02*
X184548810Y-177099950D01*
X186644048Y-176909473D02*
X186548810Y-177004712D01*
X186548810Y-177004712D02*
X186263096Y-177099950D01*
X186263096Y-177099950D02*
X186072620Y-177099950D01*
X186072620Y-177099950D02*
X185786905Y-177004712D01*
X185786905Y-177004712D02*
X185596429Y-176814235D01*
X185596429Y-176814235D02*
X185501191Y-176623759D01*
X185501191Y-176623759D02*
X185405953Y-176242807D01*
X185405953Y-176242807D02*
X185405953Y-175957092D01*
X185405953Y-175957092D02*
X185501191Y-175576140D01*
X185501191Y-175576140D02*
X185596429Y-175385664D01*
X185596429Y-175385664D02*
X185786905Y-175195188D01*
X185786905Y-175195188D02*
X186072620Y-175099950D01*
X186072620Y-175099950D02*
X186263096Y-175099950D01*
X186263096Y-175099950D02*
X186548810Y-175195188D01*
X186548810Y-175195188D02*
X186644048Y-175290426D01*
X187882143Y-175099950D02*
X188263096Y-175099950D01*
X188263096Y-175099950D02*
X188453572Y-175195188D01*
X188453572Y-175195188D02*
X188644048Y-175385664D01*
X188644048Y-175385664D02*
X188739286Y-175766616D01*
X188739286Y-175766616D02*
X188739286Y-176433283D01*
X188739286Y-176433283D02*
X188644048Y-176814235D01*
X188644048Y-176814235D02*
X188453572Y-177004712D01*
X188453572Y-177004712D02*
X188263096Y-177099950D01*
X188263096Y-177099950D02*
X187882143Y-177099950D01*
X187882143Y-177099950D02*
X187691667Y-177004712D01*
X187691667Y-177004712D02*
X187501191Y-176814235D01*
X187501191Y-176814235D02*
X187405953Y-176433283D01*
X187405953Y-176433283D02*
X187405953Y-175766616D01*
X187405953Y-175766616D02*
X187501191Y-175385664D01*
X187501191Y-175385664D02*
X187691667Y-175195188D01*
X187691667Y-175195188D02*
X187882143Y-175099950D01*
X189596429Y-177099950D02*
X189596429Y-175099950D01*
X189596429Y-175099950D02*
X190263096Y-176528521D01*
X190263096Y-176528521D02*
X190929762Y-175099950D01*
X190929762Y-175099950D02*
X190929762Y-177099950D01*
X160405951Y-178319838D02*
X160786904Y-178319838D01*
X160786904Y-178319838D02*
X160977380Y-178415076D01*
X160977380Y-178415076D02*
X161167856Y-178605552D01*
X161167856Y-178605552D02*
X161263094Y-178986504D01*
X161263094Y-178986504D02*
X161263094Y-179653171D01*
X161263094Y-179653171D02*
X161167856Y-180034123D01*
X161167856Y-180034123D02*
X160977380Y-180224600D01*
X160977380Y-180224600D02*
X160786904Y-180319838D01*
X160786904Y-180319838D02*
X160405951Y-180319838D01*
X160405951Y-180319838D02*
X160215475Y-180224600D01*
X160215475Y-180224600D02*
X160024999Y-180034123D01*
X160024999Y-180034123D02*
X159929761Y-179653171D01*
X159929761Y-179653171D02*
X159929761Y-178986504D01*
X159929761Y-178986504D02*
X160024999Y-178605552D01*
X160024999Y-178605552D02*
X160215475Y-178415076D01*
X160215475Y-178415076D02*
X160405951Y-178319838D01*
X162120237Y-180319838D02*
X162120237Y-178319838D01*
X162120237Y-178319838D02*
X162882142Y-178319838D01*
X162882142Y-178319838D02*
X163072618Y-178415076D01*
X163072618Y-178415076D02*
X163167856Y-178510314D01*
X163167856Y-178510314D02*
X163263094Y-178700790D01*
X163263094Y-178700790D02*
X163263094Y-178986504D01*
X163263094Y-178986504D02*
X163167856Y-179176980D01*
X163167856Y-179176980D02*
X163072618Y-179272219D01*
X163072618Y-179272219D02*
X162882142Y-179367457D01*
X162882142Y-179367457D02*
X162120237Y-179367457D01*
X164120237Y-179272219D02*
X164786904Y-179272219D01*
X165072618Y-180319838D02*
X164120237Y-180319838D01*
X164120237Y-180319838D02*
X164120237Y-178319838D01*
X164120237Y-178319838D02*
X165072618Y-178319838D01*
X165929761Y-180319838D02*
X165929761Y-178319838D01*
X165929761Y-178319838D02*
X167072618Y-180319838D01*
X167072618Y-180319838D02*
X167072618Y-178319838D01*
X168024999Y-180319838D02*
X168024999Y-178319838D01*
X168977380Y-180319838D02*
X168977380Y-178319838D01*
X168977380Y-178319838D02*
X170120237Y-180319838D01*
X170120237Y-180319838D02*
X170120237Y-178319838D01*
X170786904Y-178319838D02*
X171453570Y-180319838D01*
X171453570Y-180319838D02*
X172120237Y-178319838D01*
X172786904Y-179272219D02*
X173453571Y-179272219D01*
X173739285Y-180319838D02*
X172786904Y-180319838D01*
X172786904Y-180319838D02*
X172786904Y-178319838D01*
X172786904Y-178319838D02*
X173739285Y-178319838D01*
X175739285Y-180319838D02*
X175072618Y-179367457D01*
X174596428Y-180319838D02*
X174596428Y-178319838D01*
X174596428Y-178319838D02*
X175358333Y-178319838D01*
X175358333Y-178319838D02*
X175548809Y-178415076D01*
X175548809Y-178415076D02*
X175644047Y-178510314D01*
X175644047Y-178510314D02*
X175739285Y-178700790D01*
X175739285Y-178700790D02*
X175739285Y-178986504D01*
X175739285Y-178986504D02*
X175644047Y-179176980D01*
X175644047Y-179176980D02*
X175548809Y-179272219D01*
X175548809Y-179272219D02*
X175358333Y-179367457D01*
X175358333Y-179367457D02*
X174596428Y-179367457D01*
X176310714Y-178319838D02*
X177453571Y-178319838D01*
X176882142Y-180319838D02*
X176882142Y-178319838D01*
X178120238Y-179272219D02*
X178786905Y-179272219D01*
X179072619Y-180319838D02*
X178120238Y-180319838D01*
X178120238Y-180319838D02*
X178120238Y-178319838D01*
X178120238Y-178319838D02*
X179072619Y-178319838D01*
X181072619Y-180319838D02*
X180405952Y-179367457D01*
X179929762Y-180319838D02*
X179929762Y-178319838D01*
X179929762Y-178319838D02*
X180691667Y-178319838D01*
X180691667Y-178319838D02*
X180882143Y-178415076D01*
X180882143Y-178415076D02*
X180977381Y-178510314D01*
X180977381Y-178510314D02*
X181072619Y-178700790D01*
X181072619Y-178700790D02*
X181072619Y-178986504D01*
X181072619Y-178986504D02*
X180977381Y-179176980D01*
X180977381Y-179176980D02*
X180882143Y-179272219D01*
X180882143Y-179272219D02*
X180691667Y-179367457D01*
X180691667Y-179367457D02*
X179929762Y-179367457D01*
X181929762Y-180129361D02*
X182025000Y-180224600D01*
X182025000Y-180224600D02*
X181929762Y-180319838D01*
X181929762Y-180319838D02*
X181834524Y-180224600D01*
X181834524Y-180224600D02*
X181929762Y-180129361D01*
X181929762Y-180129361D02*
X181929762Y-180319838D01*
X183263095Y-178319838D02*
X183644048Y-178319838D01*
X183644048Y-178319838D02*
X183834524Y-178415076D01*
X183834524Y-178415076D02*
X184025000Y-178605552D01*
X184025000Y-178605552D02*
X184120238Y-178986504D01*
X184120238Y-178986504D02*
X184120238Y-179653171D01*
X184120238Y-179653171D02*
X184025000Y-180034123D01*
X184025000Y-180034123D02*
X183834524Y-180224600D01*
X183834524Y-180224600D02*
X183644048Y-180319838D01*
X183644048Y-180319838D02*
X183263095Y-180319838D01*
X183263095Y-180319838D02*
X183072619Y-180224600D01*
X183072619Y-180224600D02*
X182882143Y-180034123D01*
X182882143Y-180034123D02*
X182786905Y-179653171D01*
X182786905Y-179653171D02*
X182786905Y-178986504D01*
X182786905Y-178986504D02*
X182882143Y-178605552D01*
X182882143Y-178605552D02*
X183072619Y-178415076D01*
X183072619Y-178415076D02*
X183263095Y-178319838D01*
X186120238Y-180319838D02*
X185453571Y-179367457D01*
X184977381Y-180319838D02*
X184977381Y-178319838D01*
X184977381Y-178319838D02*
X185739286Y-178319838D01*
X185739286Y-178319838D02*
X185929762Y-178415076D01*
X185929762Y-178415076D02*
X186025000Y-178510314D01*
X186025000Y-178510314D02*
X186120238Y-178700790D01*
X186120238Y-178700790D02*
X186120238Y-178986504D01*
X186120238Y-178986504D02*
X186025000Y-179176980D01*
X186025000Y-179176980D02*
X185929762Y-179272219D01*
X185929762Y-179272219D02*
X185739286Y-179367457D01*
X185739286Y-179367457D02*
X184977381Y-179367457D01*
X188025000Y-178415076D02*
X187834524Y-178319838D01*
X187834524Y-178319838D02*
X187548810Y-178319838D01*
X187548810Y-178319838D02*
X187263095Y-178415076D01*
X187263095Y-178415076D02*
X187072619Y-178605552D01*
X187072619Y-178605552D02*
X186977381Y-178796028D01*
X186977381Y-178796028D02*
X186882143Y-179176980D01*
X186882143Y-179176980D02*
X186882143Y-179462695D01*
X186882143Y-179462695D02*
X186977381Y-179843647D01*
X186977381Y-179843647D02*
X187072619Y-180034123D01*
X187072619Y-180034123D02*
X187263095Y-180224600D01*
X187263095Y-180224600D02*
X187548810Y-180319838D01*
X187548810Y-180319838D02*
X187739286Y-180319838D01*
X187739286Y-180319838D02*
X188025000Y-180224600D01*
X188025000Y-180224600D02*
X188120238Y-180129361D01*
X188120238Y-180129361D02*
X188120238Y-179462695D01*
X188120238Y-179462695D02*
X187739286Y-179462695D01*
D11*
X123363095Y-50829819D02*
X123363095Y-49829819D01*
X123363095Y-50306009D02*
X123934523Y-50306009D01*
X123934523Y-50829819D02*
X123934523Y-49829819D01*
X124934523Y-50829819D02*
X124363095Y-50829819D01*
X124648809Y-50829819D02*
X124648809Y-49829819D01*
X124648809Y-49829819D02*
X124553571Y-49972676D01*
X124553571Y-49972676D02*
X124458333Y-50067914D01*
X124458333Y-50067914D02*
X124363095Y-50115533D01*
D12*
X187329618Y-89677318D02*
X187329618Y-88407318D01*
X188055333Y-89677318D02*
X187511047Y-88951603D01*
X188055333Y-88407318D02*
X187329618Y-89133032D01*
X188478666Y-88407318D02*
X189325333Y-88407318D01*
X189325333Y-88407318D02*
X188781047Y-89677318D01*
X186704618Y-113627318D02*
X186704618Y-112357318D01*
X187430333Y-113627318D02*
X186886047Y-112901603D01*
X187430333Y-112357318D02*
X186704618Y-113083032D01*
X188156047Y-112901603D02*
X188035095Y-112841127D01*
X188035095Y-112841127D02*
X187974618Y-112780651D01*
X187974618Y-112780651D02*
X187914142Y-112659699D01*
X187914142Y-112659699D02*
X187914142Y-112599222D01*
X187914142Y-112599222D02*
X187974618Y-112478270D01*
X187974618Y-112478270D02*
X188035095Y-112417794D01*
X188035095Y-112417794D02*
X188156047Y-112357318D01*
X188156047Y-112357318D02*
X188397952Y-112357318D01*
X188397952Y-112357318D02*
X188518904Y-112417794D01*
X188518904Y-112417794D02*
X188579380Y-112478270D01*
X188579380Y-112478270D02*
X188639857Y-112599222D01*
X188639857Y-112599222D02*
X188639857Y-112659699D01*
X188639857Y-112659699D02*
X188579380Y-112780651D01*
X188579380Y-112780651D02*
X188518904Y-112841127D01*
X188518904Y-112841127D02*
X188397952Y-112901603D01*
X188397952Y-112901603D02*
X188156047Y-112901603D01*
X188156047Y-112901603D02*
X188035095Y-112962080D01*
X188035095Y-112962080D02*
X187974618Y-113022556D01*
X187974618Y-113022556D02*
X187914142Y-113143508D01*
X187914142Y-113143508D02*
X187914142Y-113385413D01*
X187914142Y-113385413D02*
X187974618Y-113506365D01*
X187974618Y-113506365D02*
X188035095Y-113566842D01*
X188035095Y-113566842D02*
X188156047Y-113627318D01*
X188156047Y-113627318D02*
X188397952Y-113627318D01*
X188397952Y-113627318D02*
X188518904Y-113566842D01*
X188518904Y-113566842D02*
X188579380Y-113506365D01*
X188579380Y-113506365D02*
X188639857Y-113385413D01*
X188639857Y-113385413D02*
X188639857Y-113143508D01*
X188639857Y-113143508D02*
X188579380Y-113022556D01*
X188579380Y-113022556D02*
X188518904Y-112962080D01*
X188518904Y-112962080D02*
X188397952Y-112901603D01*
X143796905Y-49359080D02*
X143373571Y-49359080D01*
X143373571Y-50024318D02*
X143373571Y-48754318D01*
X143373571Y-48754318D02*
X143978333Y-48754318D01*
X145127381Y-50024318D02*
X144401666Y-50024318D01*
X144764523Y-50024318D02*
X144764523Y-48754318D01*
X144764523Y-48754318D02*
X144643571Y-48935746D01*
X144643571Y-48935746D02*
X144522619Y-49056699D01*
X144522619Y-49056699D02*
X144401666Y-49117175D01*
X146336905Y-50024318D02*
X145611190Y-50024318D01*
X145974047Y-50024318D02*
X145974047Y-48754318D01*
X145974047Y-48754318D02*
X145853095Y-48935746D01*
X145853095Y-48935746D02*
X145732143Y-49056699D01*
X145732143Y-49056699D02*
X145611190Y-49117175D01*
X144254618Y-113543318D02*
X144254618Y-112273318D01*
X144980333Y-113543318D02*
X144436047Y-112817603D01*
X144980333Y-112273318D02*
X144254618Y-112999032D01*
X145403666Y-112273318D02*
X146189857Y-112273318D01*
X146189857Y-112273318D02*
X145766523Y-112757127D01*
X145766523Y-112757127D02*
X145947952Y-112757127D01*
X145947952Y-112757127D02*
X146068904Y-112817603D01*
X146068904Y-112817603D02*
X146129380Y-112878080D01*
X146129380Y-112878080D02*
X146189857Y-112999032D01*
X146189857Y-112999032D02*
X146189857Y-113301413D01*
X146189857Y-113301413D02*
X146129380Y-113422365D01*
X146129380Y-113422365D02*
X146068904Y-113482842D01*
X146068904Y-113482842D02*
X145947952Y-113543318D01*
X145947952Y-113543318D02*
X145585095Y-113543318D01*
X145585095Y-113543318D02*
X145464142Y-113482842D01*
X145464142Y-113482842D02*
X145403666Y-113422365D01*
D11*
X153508333Y-111104819D02*
X153175000Y-110628628D01*
X152936905Y-111104819D02*
X152936905Y-110104819D01*
X152936905Y-110104819D02*
X153317857Y-110104819D01*
X153317857Y-110104819D02*
X153413095Y-110152438D01*
X153413095Y-110152438D02*
X153460714Y-110200057D01*
X153460714Y-110200057D02*
X153508333Y-110295295D01*
X153508333Y-110295295D02*
X153508333Y-110438152D01*
X153508333Y-110438152D02*
X153460714Y-110533390D01*
X153460714Y-110533390D02*
X153413095Y-110581009D01*
X153413095Y-110581009D02*
X153317857Y-110628628D01*
X153317857Y-110628628D02*
X152936905Y-110628628D01*
X153841667Y-110104819D02*
X154460714Y-110104819D01*
X154460714Y-110104819D02*
X154127381Y-110485771D01*
X154127381Y-110485771D02*
X154270238Y-110485771D01*
X154270238Y-110485771D02*
X154365476Y-110533390D01*
X154365476Y-110533390D02*
X154413095Y-110581009D01*
X154413095Y-110581009D02*
X154460714Y-110676247D01*
X154460714Y-110676247D02*
X154460714Y-110914342D01*
X154460714Y-110914342D02*
X154413095Y-111009580D01*
X154413095Y-111009580D02*
X154365476Y-111057200D01*
X154365476Y-111057200D02*
X154270238Y-111104819D01*
X154270238Y-111104819D02*
X153984524Y-111104819D01*
X153984524Y-111104819D02*
X153889286Y-111057200D01*
X153889286Y-111057200D02*
X153841667Y-111009580D01*
X191774405Y-111329819D02*
X191774405Y-110329819D01*
X191774405Y-110329819D02*
X192012500Y-110329819D01*
X192012500Y-110329819D02*
X192155357Y-110377438D01*
X192155357Y-110377438D02*
X192250595Y-110472676D01*
X192250595Y-110472676D02*
X192298214Y-110567914D01*
X192298214Y-110567914D02*
X192345833Y-110758390D01*
X192345833Y-110758390D02*
X192345833Y-110901247D01*
X192345833Y-110901247D02*
X192298214Y-111091723D01*
X192298214Y-111091723D02*
X192250595Y-111186961D01*
X192250595Y-111186961D02*
X192155357Y-111282200D01*
X192155357Y-111282200D02*
X192012500Y-111329819D01*
X192012500Y-111329819D02*
X191774405Y-111329819D01*
X192917262Y-110758390D02*
X192822024Y-110710771D01*
X192822024Y-110710771D02*
X192774405Y-110663152D01*
X192774405Y-110663152D02*
X192726786Y-110567914D01*
X192726786Y-110567914D02*
X192726786Y-110520295D01*
X192726786Y-110520295D02*
X192774405Y-110425057D01*
X192774405Y-110425057D02*
X192822024Y-110377438D01*
X192822024Y-110377438D02*
X192917262Y-110329819D01*
X192917262Y-110329819D02*
X193107738Y-110329819D01*
X193107738Y-110329819D02*
X193202976Y-110377438D01*
X193202976Y-110377438D02*
X193250595Y-110425057D01*
X193250595Y-110425057D02*
X193298214Y-110520295D01*
X193298214Y-110520295D02*
X193298214Y-110567914D01*
X193298214Y-110567914D02*
X193250595Y-110663152D01*
X193250595Y-110663152D02*
X193202976Y-110710771D01*
X193202976Y-110710771D02*
X193107738Y-110758390D01*
X193107738Y-110758390D02*
X192917262Y-110758390D01*
X192917262Y-110758390D02*
X192822024Y-110806009D01*
X192822024Y-110806009D02*
X192774405Y-110853628D01*
X192774405Y-110853628D02*
X192726786Y-110948866D01*
X192726786Y-110948866D02*
X192726786Y-111139342D01*
X192726786Y-111139342D02*
X192774405Y-111234580D01*
X192774405Y-111234580D02*
X192822024Y-111282200D01*
X192822024Y-111282200D02*
X192917262Y-111329819D01*
X192917262Y-111329819D02*
X193107738Y-111329819D01*
X193107738Y-111329819D02*
X193202976Y-111282200D01*
X193202976Y-111282200D02*
X193250595Y-111234580D01*
X193250595Y-111234580D02*
X193298214Y-111139342D01*
X193298214Y-111139342D02*
X193298214Y-110948866D01*
X193298214Y-110948866D02*
X193250595Y-110853628D01*
X193250595Y-110853628D02*
X193202976Y-110806009D01*
X193202976Y-110806009D02*
X193107738Y-110758390D01*
X153683333Y-131979819D02*
X153350000Y-131503628D01*
X153111905Y-131979819D02*
X153111905Y-130979819D01*
X153111905Y-130979819D02*
X153492857Y-130979819D01*
X153492857Y-130979819D02*
X153588095Y-131027438D01*
X153588095Y-131027438D02*
X153635714Y-131075057D01*
X153635714Y-131075057D02*
X153683333Y-131170295D01*
X153683333Y-131170295D02*
X153683333Y-131313152D01*
X153683333Y-131313152D02*
X153635714Y-131408390D01*
X153635714Y-131408390D02*
X153588095Y-131456009D01*
X153588095Y-131456009D02*
X153492857Y-131503628D01*
X153492857Y-131503628D02*
X153111905Y-131503628D01*
X154540476Y-131313152D02*
X154540476Y-131979819D01*
X154302381Y-130932200D02*
X154064286Y-131646485D01*
X154064286Y-131646485D02*
X154683333Y-131646485D01*
X196008333Y-111354819D02*
X195675000Y-110878628D01*
X195436905Y-111354819D02*
X195436905Y-110354819D01*
X195436905Y-110354819D02*
X195817857Y-110354819D01*
X195817857Y-110354819D02*
X195913095Y-110402438D01*
X195913095Y-110402438D02*
X195960714Y-110450057D01*
X195960714Y-110450057D02*
X196008333Y-110545295D01*
X196008333Y-110545295D02*
X196008333Y-110688152D01*
X196008333Y-110688152D02*
X195960714Y-110783390D01*
X195960714Y-110783390D02*
X195913095Y-110831009D01*
X195913095Y-110831009D02*
X195817857Y-110878628D01*
X195817857Y-110878628D02*
X195436905Y-110878628D01*
X196579762Y-110783390D02*
X196484524Y-110735771D01*
X196484524Y-110735771D02*
X196436905Y-110688152D01*
X196436905Y-110688152D02*
X196389286Y-110592914D01*
X196389286Y-110592914D02*
X196389286Y-110545295D01*
X196389286Y-110545295D02*
X196436905Y-110450057D01*
X196436905Y-110450057D02*
X196484524Y-110402438D01*
X196484524Y-110402438D02*
X196579762Y-110354819D01*
X196579762Y-110354819D02*
X196770238Y-110354819D01*
X196770238Y-110354819D02*
X196865476Y-110402438D01*
X196865476Y-110402438D02*
X196913095Y-110450057D01*
X196913095Y-110450057D02*
X196960714Y-110545295D01*
X196960714Y-110545295D02*
X196960714Y-110592914D01*
X196960714Y-110592914D02*
X196913095Y-110688152D01*
X196913095Y-110688152D02*
X196865476Y-110735771D01*
X196865476Y-110735771D02*
X196770238Y-110783390D01*
X196770238Y-110783390D02*
X196579762Y-110783390D01*
X196579762Y-110783390D02*
X196484524Y-110831009D01*
X196484524Y-110831009D02*
X196436905Y-110878628D01*
X196436905Y-110878628D02*
X196389286Y-110973866D01*
X196389286Y-110973866D02*
X196389286Y-111164342D01*
X196389286Y-111164342D02*
X196436905Y-111259580D01*
X196436905Y-111259580D02*
X196484524Y-111307200D01*
X196484524Y-111307200D02*
X196579762Y-111354819D01*
X196579762Y-111354819D02*
X196770238Y-111354819D01*
X196770238Y-111354819D02*
X196865476Y-111307200D01*
X196865476Y-111307200D02*
X196913095Y-111259580D01*
X196913095Y-111259580D02*
X196960714Y-111164342D01*
X196960714Y-111164342D02*
X196960714Y-110973866D01*
X196960714Y-110973866D02*
X196913095Y-110878628D01*
X196913095Y-110878628D02*
X196865476Y-110831009D01*
X196865476Y-110831009D02*
X196770238Y-110783390D01*
D12*
X165676667Y-137609080D02*
X165253333Y-137609080D01*
X165253333Y-138274318D02*
X165253333Y-137004318D01*
X165253333Y-137004318D02*
X165858095Y-137004318D01*
X166402381Y-138274318D02*
X166644285Y-138274318D01*
X166644285Y-138274318D02*
X166765238Y-138213842D01*
X166765238Y-138213842D02*
X166825714Y-138153365D01*
X166825714Y-138153365D02*
X166946666Y-137971937D01*
X166946666Y-137971937D02*
X167007143Y-137730032D01*
X167007143Y-137730032D02*
X167007143Y-137246222D01*
X167007143Y-137246222D02*
X166946666Y-137125270D01*
X166946666Y-137125270D02*
X166886190Y-137064794D01*
X166886190Y-137064794D02*
X166765238Y-137004318D01*
X166765238Y-137004318D02*
X166523333Y-137004318D01*
X166523333Y-137004318D02*
X166402381Y-137064794D01*
X166402381Y-137064794D02*
X166341904Y-137125270D01*
X166341904Y-137125270D02*
X166281428Y-137246222D01*
X166281428Y-137246222D02*
X166281428Y-137548603D01*
X166281428Y-137548603D02*
X166341904Y-137669556D01*
X166341904Y-137669556D02*
X166402381Y-137730032D01*
X166402381Y-137730032D02*
X166523333Y-137790508D01*
X166523333Y-137790508D02*
X166765238Y-137790508D01*
X166765238Y-137790508D02*
X166886190Y-137730032D01*
X166886190Y-137730032D02*
X166946666Y-137669556D01*
X166946666Y-137669556D02*
X167007143Y-137548603D01*
D11*
X149336905Y-131979819D02*
X149336905Y-130979819D01*
X149336905Y-130979819D02*
X149575000Y-130979819D01*
X149575000Y-130979819D02*
X149717857Y-131027438D01*
X149717857Y-131027438D02*
X149813095Y-131122676D01*
X149813095Y-131122676D02*
X149860714Y-131217914D01*
X149860714Y-131217914D02*
X149908333Y-131408390D01*
X149908333Y-131408390D02*
X149908333Y-131551247D01*
X149908333Y-131551247D02*
X149860714Y-131741723D01*
X149860714Y-131741723D02*
X149813095Y-131836961D01*
X149813095Y-131836961D02*
X149717857Y-131932200D01*
X149717857Y-131932200D02*
X149575000Y-131979819D01*
X149575000Y-131979819D02*
X149336905Y-131979819D01*
X150765476Y-131313152D02*
X150765476Y-131979819D01*
X150527381Y-130932200D02*
X150289286Y-131646485D01*
X150289286Y-131646485D02*
X150908333Y-131646485D01*
D12*
X123376667Y-158234080D02*
X122953333Y-158234080D01*
X122953333Y-158899318D02*
X122953333Y-157629318D01*
X122953333Y-157629318D02*
X123558095Y-157629318D01*
X124646666Y-157629318D02*
X124041904Y-157629318D01*
X124041904Y-157629318D02*
X123981428Y-158234080D01*
X123981428Y-158234080D02*
X124041904Y-158173603D01*
X124041904Y-158173603D02*
X124162857Y-158113127D01*
X124162857Y-158113127D02*
X124465238Y-158113127D01*
X124465238Y-158113127D02*
X124586190Y-158173603D01*
X124586190Y-158173603D02*
X124646666Y-158234080D01*
X124646666Y-158234080D02*
X124707143Y-158355032D01*
X124707143Y-158355032D02*
X124707143Y-158657413D01*
X124707143Y-158657413D02*
X124646666Y-158778365D01*
X124646666Y-158778365D02*
X124586190Y-158838842D01*
X124586190Y-158838842D02*
X124465238Y-158899318D01*
X124465238Y-158899318D02*
X124162857Y-158899318D01*
X124162857Y-158899318D02*
X124041904Y-158838842D01*
X124041904Y-158838842D02*
X123981428Y-158778365D01*
D11*
X191310714Y-153229819D02*
X191310714Y-152229819D01*
X191310714Y-152229819D02*
X191548809Y-152229819D01*
X191548809Y-152229819D02*
X191691666Y-152277438D01*
X191691666Y-152277438D02*
X191786904Y-152372676D01*
X191786904Y-152372676D02*
X191834523Y-152467914D01*
X191834523Y-152467914D02*
X191882142Y-152658390D01*
X191882142Y-152658390D02*
X191882142Y-152801247D01*
X191882142Y-152801247D02*
X191834523Y-152991723D01*
X191834523Y-152991723D02*
X191786904Y-153086961D01*
X191786904Y-153086961D02*
X191691666Y-153182200D01*
X191691666Y-153182200D02*
X191548809Y-153229819D01*
X191548809Y-153229819D02*
X191310714Y-153229819D01*
X192834523Y-153229819D02*
X192263095Y-153229819D01*
X192548809Y-153229819D02*
X192548809Y-152229819D01*
X192548809Y-152229819D02*
X192453571Y-152372676D01*
X192453571Y-152372676D02*
X192358333Y-152467914D01*
X192358333Y-152467914D02*
X192263095Y-152515533D01*
X193453571Y-152229819D02*
X193548809Y-152229819D01*
X193548809Y-152229819D02*
X193644047Y-152277438D01*
X193644047Y-152277438D02*
X193691666Y-152325057D01*
X193691666Y-152325057D02*
X193739285Y-152420295D01*
X193739285Y-152420295D02*
X193786904Y-152610771D01*
X193786904Y-152610771D02*
X193786904Y-152848866D01*
X193786904Y-152848866D02*
X193739285Y-153039342D01*
X193739285Y-153039342D02*
X193691666Y-153134580D01*
X193691666Y-153134580D02*
X193644047Y-153182200D01*
X193644047Y-153182200D02*
X193548809Y-153229819D01*
X193548809Y-153229819D02*
X193453571Y-153229819D01*
X193453571Y-153229819D02*
X193358333Y-153182200D01*
X193358333Y-153182200D02*
X193310714Y-153134580D01*
X193310714Y-153134580D02*
X193263095Y-153039342D01*
X193263095Y-153039342D02*
X193215476Y-152848866D01*
X193215476Y-152848866D02*
X193215476Y-152610771D01*
X193215476Y-152610771D02*
X193263095Y-152420295D01*
X193263095Y-152420295D02*
X193310714Y-152325057D01*
X193310714Y-152325057D02*
X193358333Y-152277438D01*
X193358333Y-152277438D02*
X193453571Y-152229819D01*
X195557142Y-153254819D02*
X195223809Y-152778628D01*
X194985714Y-153254819D02*
X194985714Y-152254819D01*
X194985714Y-152254819D02*
X195366666Y-152254819D01*
X195366666Y-152254819D02*
X195461904Y-152302438D01*
X195461904Y-152302438D02*
X195509523Y-152350057D01*
X195509523Y-152350057D02*
X195557142Y-152445295D01*
X195557142Y-152445295D02*
X195557142Y-152588152D01*
X195557142Y-152588152D02*
X195509523Y-152683390D01*
X195509523Y-152683390D02*
X195461904Y-152731009D01*
X195461904Y-152731009D02*
X195366666Y-152778628D01*
X195366666Y-152778628D02*
X194985714Y-152778628D01*
X196509523Y-153254819D02*
X195938095Y-153254819D01*
X196223809Y-153254819D02*
X196223809Y-152254819D01*
X196223809Y-152254819D02*
X196128571Y-152397676D01*
X196128571Y-152397676D02*
X196033333Y-152492914D01*
X196033333Y-152492914D02*
X195938095Y-152540533D01*
X197128571Y-152254819D02*
X197223809Y-152254819D01*
X197223809Y-152254819D02*
X197319047Y-152302438D01*
X197319047Y-152302438D02*
X197366666Y-152350057D01*
X197366666Y-152350057D02*
X197414285Y-152445295D01*
X197414285Y-152445295D02*
X197461904Y-152635771D01*
X197461904Y-152635771D02*
X197461904Y-152873866D01*
X197461904Y-152873866D02*
X197414285Y-153064342D01*
X197414285Y-153064342D02*
X197366666Y-153159580D01*
X197366666Y-153159580D02*
X197319047Y-153207200D01*
X197319047Y-153207200D02*
X197223809Y-153254819D01*
X197223809Y-153254819D02*
X197128571Y-153254819D01*
X197128571Y-153254819D02*
X197033333Y-153207200D01*
X197033333Y-153207200D02*
X196985714Y-153159580D01*
X196985714Y-153159580D02*
X196938095Y-153064342D01*
X196938095Y-153064342D02*
X196890476Y-152873866D01*
X196890476Y-152873866D02*
X196890476Y-152635771D01*
X196890476Y-152635771D02*
X196938095Y-152445295D01*
X196938095Y-152445295D02*
X196985714Y-152350057D01*
X196985714Y-152350057D02*
X197033333Y-152302438D01*
X197033333Y-152302438D02*
X197128571Y-152254819D01*
X149486905Y-64704819D02*
X149486905Y-63704819D01*
X149486905Y-63704819D02*
X149725000Y-63704819D01*
X149725000Y-63704819D02*
X149867857Y-63752438D01*
X149867857Y-63752438D02*
X149963095Y-63847676D01*
X149963095Y-63847676D02*
X150010714Y-63942914D01*
X150010714Y-63942914D02*
X150058333Y-64133390D01*
X150058333Y-64133390D02*
X150058333Y-64276247D01*
X150058333Y-64276247D02*
X150010714Y-64466723D01*
X150010714Y-64466723D02*
X149963095Y-64561961D01*
X149963095Y-64561961D02*
X149867857Y-64657200D01*
X149867857Y-64657200D02*
X149725000Y-64704819D01*
X149725000Y-64704819D02*
X149486905Y-64704819D01*
X151010714Y-64704819D02*
X150439286Y-64704819D01*
X150725000Y-64704819D02*
X150725000Y-63704819D01*
X150725000Y-63704819D02*
X150629762Y-63847676D01*
X150629762Y-63847676D02*
X150534524Y-63942914D01*
X150534524Y-63942914D02*
X150439286Y-63990533D01*
D12*
X165626667Y-116809080D02*
X165203333Y-116809080D01*
X165203333Y-117474318D02*
X165203333Y-116204318D01*
X165203333Y-116204318D02*
X165808095Y-116204318D01*
X166473333Y-116748603D02*
X166352381Y-116688127D01*
X166352381Y-116688127D02*
X166291904Y-116627651D01*
X166291904Y-116627651D02*
X166231428Y-116506699D01*
X166231428Y-116506699D02*
X166231428Y-116446222D01*
X166231428Y-116446222D02*
X166291904Y-116325270D01*
X166291904Y-116325270D02*
X166352381Y-116264794D01*
X166352381Y-116264794D02*
X166473333Y-116204318D01*
X166473333Y-116204318D02*
X166715238Y-116204318D01*
X166715238Y-116204318D02*
X166836190Y-116264794D01*
X166836190Y-116264794D02*
X166896666Y-116325270D01*
X166896666Y-116325270D02*
X166957143Y-116446222D01*
X166957143Y-116446222D02*
X166957143Y-116506699D01*
X166957143Y-116506699D02*
X166896666Y-116627651D01*
X166896666Y-116627651D02*
X166836190Y-116688127D01*
X166836190Y-116688127D02*
X166715238Y-116748603D01*
X166715238Y-116748603D02*
X166473333Y-116748603D01*
X166473333Y-116748603D02*
X166352381Y-116809080D01*
X166352381Y-116809080D02*
X166291904Y-116869556D01*
X166291904Y-116869556D02*
X166231428Y-116990508D01*
X166231428Y-116990508D02*
X166231428Y-117232413D01*
X166231428Y-117232413D02*
X166291904Y-117353365D01*
X166291904Y-117353365D02*
X166352381Y-117413842D01*
X166352381Y-117413842D02*
X166473333Y-117474318D01*
X166473333Y-117474318D02*
X166715238Y-117474318D01*
X166715238Y-117474318D02*
X166836190Y-117413842D01*
X166836190Y-117413842D02*
X166896666Y-117353365D01*
X166896666Y-117353365D02*
X166957143Y-117232413D01*
X166957143Y-117232413D02*
X166957143Y-116990508D01*
X166957143Y-116990508D02*
X166896666Y-116869556D01*
X166896666Y-116869556D02*
X166836190Y-116809080D01*
X166836190Y-116809080D02*
X166715238Y-116748603D01*
D11*
X195933333Y-132154819D02*
X195600000Y-131678628D01*
X195361905Y-132154819D02*
X195361905Y-131154819D01*
X195361905Y-131154819D02*
X195742857Y-131154819D01*
X195742857Y-131154819D02*
X195838095Y-131202438D01*
X195838095Y-131202438D02*
X195885714Y-131250057D01*
X195885714Y-131250057D02*
X195933333Y-131345295D01*
X195933333Y-131345295D02*
X195933333Y-131488152D01*
X195933333Y-131488152D02*
X195885714Y-131583390D01*
X195885714Y-131583390D02*
X195838095Y-131631009D01*
X195838095Y-131631009D02*
X195742857Y-131678628D01*
X195742857Y-131678628D02*
X195361905Y-131678628D01*
X196409524Y-132154819D02*
X196600000Y-132154819D01*
X196600000Y-132154819D02*
X196695238Y-132107200D01*
X196695238Y-132107200D02*
X196742857Y-132059580D01*
X196742857Y-132059580D02*
X196838095Y-131916723D01*
X196838095Y-131916723D02*
X196885714Y-131726247D01*
X196885714Y-131726247D02*
X196885714Y-131345295D01*
X196885714Y-131345295D02*
X196838095Y-131250057D01*
X196838095Y-131250057D02*
X196790476Y-131202438D01*
X196790476Y-131202438D02*
X196695238Y-131154819D01*
X196695238Y-131154819D02*
X196504762Y-131154819D01*
X196504762Y-131154819D02*
X196409524Y-131202438D01*
X196409524Y-131202438D02*
X196361905Y-131250057D01*
X196361905Y-131250057D02*
X196314286Y-131345295D01*
X196314286Y-131345295D02*
X196314286Y-131583390D01*
X196314286Y-131583390D02*
X196361905Y-131678628D01*
X196361905Y-131678628D02*
X196409524Y-131726247D01*
X196409524Y-131726247D02*
X196504762Y-131773866D01*
X196504762Y-131773866D02*
X196695238Y-131773866D01*
X196695238Y-131773866D02*
X196790476Y-131726247D01*
X196790476Y-131726247D02*
X196838095Y-131678628D01*
X196838095Y-131678628D02*
X196885714Y-131583390D01*
D12*
X123101667Y-137334080D02*
X122678333Y-137334080D01*
X122678333Y-137999318D02*
X122678333Y-136729318D01*
X122678333Y-136729318D02*
X123283095Y-136729318D01*
X124311190Y-137152651D02*
X124311190Y-137999318D01*
X124008809Y-136668842D02*
X123706428Y-137575984D01*
X123706428Y-137575984D02*
X124492619Y-137575984D01*
D11*
X153970833Y-87304819D02*
X153637500Y-86828628D01*
X153399405Y-87304819D02*
X153399405Y-86304819D01*
X153399405Y-86304819D02*
X153780357Y-86304819D01*
X153780357Y-86304819D02*
X153875595Y-86352438D01*
X153875595Y-86352438D02*
X153923214Y-86400057D01*
X153923214Y-86400057D02*
X153970833Y-86495295D01*
X153970833Y-86495295D02*
X153970833Y-86638152D01*
X153970833Y-86638152D02*
X153923214Y-86733390D01*
X153923214Y-86733390D02*
X153875595Y-86781009D01*
X153875595Y-86781009D02*
X153780357Y-86828628D01*
X153780357Y-86828628D02*
X153399405Y-86828628D01*
X154351786Y-86400057D02*
X154399405Y-86352438D01*
X154399405Y-86352438D02*
X154494643Y-86304819D01*
X154494643Y-86304819D02*
X154732738Y-86304819D01*
X154732738Y-86304819D02*
X154827976Y-86352438D01*
X154827976Y-86352438D02*
X154875595Y-86400057D01*
X154875595Y-86400057D02*
X154923214Y-86495295D01*
X154923214Y-86495295D02*
X154923214Y-86590533D01*
X154923214Y-86590533D02*
X154875595Y-86733390D01*
X154875595Y-86733390D02*
X154304167Y-87304819D01*
X154304167Y-87304819D02*
X154923214Y-87304819D01*
X191724405Y-132179819D02*
X191724405Y-131179819D01*
X191724405Y-131179819D02*
X191962500Y-131179819D01*
X191962500Y-131179819D02*
X192105357Y-131227438D01*
X192105357Y-131227438D02*
X192200595Y-131322676D01*
X192200595Y-131322676D02*
X192248214Y-131417914D01*
X192248214Y-131417914D02*
X192295833Y-131608390D01*
X192295833Y-131608390D02*
X192295833Y-131751247D01*
X192295833Y-131751247D02*
X192248214Y-131941723D01*
X192248214Y-131941723D02*
X192200595Y-132036961D01*
X192200595Y-132036961D02*
X192105357Y-132132200D01*
X192105357Y-132132200D02*
X191962500Y-132179819D01*
X191962500Y-132179819D02*
X191724405Y-132179819D01*
X192772024Y-132179819D02*
X192962500Y-132179819D01*
X192962500Y-132179819D02*
X193057738Y-132132200D01*
X193057738Y-132132200D02*
X193105357Y-132084580D01*
X193105357Y-132084580D02*
X193200595Y-131941723D01*
X193200595Y-131941723D02*
X193248214Y-131751247D01*
X193248214Y-131751247D02*
X193248214Y-131370295D01*
X193248214Y-131370295D02*
X193200595Y-131275057D01*
X193200595Y-131275057D02*
X193152976Y-131227438D01*
X193152976Y-131227438D02*
X193057738Y-131179819D01*
X193057738Y-131179819D02*
X192867262Y-131179819D01*
X192867262Y-131179819D02*
X192772024Y-131227438D01*
X192772024Y-131227438D02*
X192724405Y-131275057D01*
X192724405Y-131275057D02*
X192676786Y-131370295D01*
X192676786Y-131370295D02*
X192676786Y-131608390D01*
X192676786Y-131608390D02*
X192724405Y-131703628D01*
X192724405Y-131703628D02*
X192772024Y-131751247D01*
X192772024Y-131751247D02*
X192867262Y-131798866D01*
X192867262Y-131798866D02*
X193057738Y-131798866D01*
X193057738Y-131798866D02*
X193152976Y-131751247D01*
X193152976Y-131751247D02*
X193200595Y-131703628D01*
X193200595Y-131703628D02*
X193248214Y-131608390D01*
X129863095Y-170554819D02*
X129863095Y-169554819D01*
X129863095Y-170031009D02*
X130434523Y-170031009D01*
X130434523Y-170554819D02*
X130434523Y-169554819D01*
X130863095Y-169650057D02*
X130910714Y-169602438D01*
X130910714Y-169602438D02*
X131005952Y-169554819D01*
X131005952Y-169554819D02*
X131244047Y-169554819D01*
X131244047Y-169554819D02*
X131339285Y-169602438D01*
X131339285Y-169602438D02*
X131386904Y-169650057D01*
X131386904Y-169650057D02*
X131434523Y-169745295D01*
X131434523Y-169745295D02*
X131434523Y-169840533D01*
X131434523Y-169840533D02*
X131386904Y-169983390D01*
X131386904Y-169983390D02*
X130815476Y-170554819D01*
X130815476Y-170554819D02*
X131434523Y-170554819D01*
X192186905Y-64904819D02*
X192186905Y-63904819D01*
X192186905Y-63904819D02*
X192425000Y-63904819D01*
X192425000Y-63904819D02*
X192567857Y-63952438D01*
X192567857Y-63952438D02*
X192663095Y-64047676D01*
X192663095Y-64047676D02*
X192710714Y-64142914D01*
X192710714Y-64142914D02*
X192758333Y-64333390D01*
X192758333Y-64333390D02*
X192758333Y-64476247D01*
X192758333Y-64476247D02*
X192710714Y-64666723D01*
X192710714Y-64666723D02*
X192663095Y-64761961D01*
X192663095Y-64761961D02*
X192567857Y-64857200D01*
X192567857Y-64857200D02*
X192425000Y-64904819D01*
X192425000Y-64904819D02*
X192186905Y-64904819D01*
X193615476Y-63904819D02*
X193425000Y-63904819D01*
X193425000Y-63904819D02*
X193329762Y-63952438D01*
X193329762Y-63952438D02*
X193282143Y-64000057D01*
X193282143Y-64000057D02*
X193186905Y-64142914D01*
X193186905Y-64142914D02*
X193139286Y-64333390D01*
X193139286Y-64333390D02*
X193139286Y-64714342D01*
X193139286Y-64714342D02*
X193186905Y-64809580D01*
X193186905Y-64809580D02*
X193234524Y-64857200D01*
X193234524Y-64857200D02*
X193329762Y-64904819D01*
X193329762Y-64904819D02*
X193520238Y-64904819D01*
X193520238Y-64904819D02*
X193615476Y-64857200D01*
X193615476Y-64857200D02*
X193663095Y-64809580D01*
X193663095Y-64809580D02*
X193710714Y-64714342D01*
X193710714Y-64714342D02*
X193710714Y-64476247D01*
X193710714Y-64476247D02*
X193663095Y-64381009D01*
X193663095Y-64381009D02*
X193615476Y-64333390D01*
X193615476Y-64333390D02*
X193520238Y-64285771D01*
X193520238Y-64285771D02*
X193329762Y-64285771D01*
X193329762Y-64285771D02*
X193234524Y-64333390D01*
X193234524Y-64333390D02*
X193186905Y-64381009D01*
X193186905Y-64381009D02*
X193139286Y-64476247D01*
D12*
X144312618Y-134424318D02*
X144312618Y-133154318D01*
X145038333Y-134424318D02*
X144494047Y-133698603D01*
X145038333Y-133154318D02*
X144312618Y-133880032D01*
X146126904Y-133577651D02*
X146126904Y-134424318D01*
X145824523Y-133093842D02*
X145522142Y-134000984D01*
X145522142Y-134000984D02*
X146308333Y-134000984D01*
D11*
X149436905Y-152904819D02*
X149436905Y-151904819D01*
X149436905Y-151904819D02*
X149675000Y-151904819D01*
X149675000Y-151904819D02*
X149817857Y-151952438D01*
X149817857Y-151952438D02*
X149913095Y-152047676D01*
X149913095Y-152047676D02*
X149960714Y-152142914D01*
X149960714Y-152142914D02*
X150008333Y-152333390D01*
X150008333Y-152333390D02*
X150008333Y-152476247D01*
X150008333Y-152476247D02*
X149960714Y-152666723D01*
X149960714Y-152666723D02*
X149913095Y-152761961D01*
X149913095Y-152761961D02*
X149817857Y-152857200D01*
X149817857Y-152857200D02*
X149675000Y-152904819D01*
X149675000Y-152904819D02*
X149436905Y-152904819D01*
X150913095Y-151904819D02*
X150436905Y-151904819D01*
X150436905Y-151904819D02*
X150389286Y-152381009D01*
X150389286Y-152381009D02*
X150436905Y-152333390D01*
X150436905Y-152333390D02*
X150532143Y-152285771D01*
X150532143Y-152285771D02*
X150770238Y-152285771D01*
X150770238Y-152285771D02*
X150865476Y-152333390D01*
X150865476Y-152333390D02*
X150913095Y-152381009D01*
X150913095Y-152381009D02*
X150960714Y-152476247D01*
X150960714Y-152476247D02*
X150960714Y-152714342D01*
X150960714Y-152714342D02*
X150913095Y-152809580D01*
X150913095Y-152809580D02*
X150865476Y-152857200D01*
X150865476Y-152857200D02*
X150770238Y-152904819D01*
X150770238Y-152904819D02*
X150532143Y-152904819D01*
X150532143Y-152904819D02*
X150436905Y-152857200D01*
X150436905Y-152857200D02*
X150389286Y-152809580D01*
D12*
X144454618Y-89668318D02*
X144454618Y-88398318D01*
X145180333Y-89668318D02*
X144636047Y-88942603D01*
X145180333Y-88398318D02*
X144454618Y-89124032D01*
X145664142Y-88519270D02*
X145724618Y-88458794D01*
X145724618Y-88458794D02*
X145845571Y-88398318D01*
X145845571Y-88398318D02*
X146147952Y-88398318D01*
X146147952Y-88398318D02*
X146268904Y-88458794D01*
X146268904Y-88458794D02*
X146329380Y-88519270D01*
X146329380Y-88519270D02*
X146389857Y-88640222D01*
X146389857Y-88640222D02*
X146389857Y-88761175D01*
X146389857Y-88761175D02*
X146329380Y-88942603D01*
X146329380Y-88942603D02*
X145603666Y-89668318D01*
X145603666Y-89668318D02*
X146389857Y-89668318D01*
X186899856Y-155327318D02*
X186899856Y-154057318D01*
X187625571Y-155327318D02*
X187081285Y-154601603D01*
X187625571Y-154057318D02*
X186899856Y-154783032D01*
X188835095Y-155327318D02*
X188109380Y-155327318D01*
X188472237Y-155327318D02*
X188472237Y-154057318D01*
X188472237Y-154057318D02*
X188351285Y-154238746D01*
X188351285Y-154238746D02*
X188230333Y-154359699D01*
X188230333Y-154359699D02*
X188109380Y-154420175D01*
X189621285Y-154057318D02*
X189742238Y-154057318D01*
X189742238Y-154057318D02*
X189863190Y-154117794D01*
X189863190Y-154117794D02*
X189923666Y-154178270D01*
X189923666Y-154178270D02*
X189984142Y-154299222D01*
X189984142Y-154299222D02*
X190044619Y-154541127D01*
X190044619Y-154541127D02*
X190044619Y-154843508D01*
X190044619Y-154843508D02*
X189984142Y-155085413D01*
X189984142Y-155085413D02*
X189923666Y-155206365D01*
X189923666Y-155206365D02*
X189863190Y-155266842D01*
X189863190Y-155266842D02*
X189742238Y-155327318D01*
X189742238Y-155327318D02*
X189621285Y-155327318D01*
X189621285Y-155327318D02*
X189500333Y-155266842D01*
X189500333Y-155266842D02*
X189439857Y-155206365D01*
X189439857Y-155206365D02*
X189379380Y-155085413D01*
X189379380Y-155085413D02*
X189318904Y-154843508D01*
X189318904Y-154843508D02*
X189318904Y-154541127D01*
X189318904Y-154541127D02*
X189379380Y-154299222D01*
X189379380Y-154299222D02*
X189439857Y-154178270D01*
X189439857Y-154178270D02*
X189500333Y-154117794D01*
X189500333Y-154117794D02*
X189621285Y-154057318D01*
X144337618Y-67174318D02*
X144337618Y-65904318D01*
X145063333Y-67174318D02*
X144519047Y-66448603D01*
X145063333Y-65904318D02*
X144337618Y-66630032D01*
X146272857Y-67174318D02*
X145547142Y-67174318D01*
X145909999Y-67174318D02*
X145909999Y-65904318D01*
X145909999Y-65904318D02*
X145789047Y-66085746D01*
X145789047Y-66085746D02*
X145668095Y-66206699D01*
X145668095Y-66206699D02*
X145547142Y-66267175D01*
X166151667Y-70384080D02*
X165728333Y-70384080D01*
X165728333Y-71049318D02*
X165728333Y-69779318D01*
X165728333Y-69779318D02*
X166333095Y-69779318D01*
X167361190Y-69779318D02*
X167119285Y-69779318D01*
X167119285Y-69779318D02*
X166998333Y-69839794D01*
X166998333Y-69839794D02*
X166937857Y-69900270D01*
X166937857Y-69900270D02*
X166816904Y-70081699D01*
X166816904Y-70081699D02*
X166756428Y-70323603D01*
X166756428Y-70323603D02*
X166756428Y-70807413D01*
X166756428Y-70807413D02*
X166816904Y-70928365D01*
X166816904Y-70928365D02*
X166877381Y-70988842D01*
X166877381Y-70988842D02*
X166998333Y-71049318D01*
X166998333Y-71049318D02*
X167240238Y-71049318D01*
X167240238Y-71049318D02*
X167361190Y-70988842D01*
X167361190Y-70988842D02*
X167421666Y-70928365D01*
X167421666Y-70928365D02*
X167482143Y-70807413D01*
X167482143Y-70807413D02*
X167482143Y-70505032D01*
X167482143Y-70505032D02*
X167421666Y-70384080D01*
X167421666Y-70384080D02*
X167361190Y-70323603D01*
X167361190Y-70323603D02*
X167240238Y-70263127D01*
X167240238Y-70263127D02*
X166998333Y-70263127D01*
X166998333Y-70263127D02*
X166877381Y-70323603D01*
X166877381Y-70323603D02*
X166816904Y-70384080D01*
X166816904Y-70384080D02*
X166756428Y-70505032D01*
X144479618Y-155193318D02*
X144479618Y-153923318D01*
X145205333Y-155193318D02*
X144661047Y-154467603D01*
X145205333Y-153923318D02*
X144479618Y-154649032D01*
X146354380Y-153923318D02*
X145749618Y-153923318D01*
X145749618Y-153923318D02*
X145689142Y-154528080D01*
X145689142Y-154528080D02*
X145749618Y-154467603D01*
X145749618Y-154467603D02*
X145870571Y-154407127D01*
X145870571Y-154407127D02*
X146172952Y-154407127D01*
X146172952Y-154407127D02*
X146293904Y-154467603D01*
X146293904Y-154467603D02*
X146354380Y-154528080D01*
X146354380Y-154528080D02*
X146414857Y-154649032D01*
X146414857Y-154649032D02*
X146414857Y-154951413D01*
X146414857Y-154951413D02*
X146354380Y-155072365D01*
X146354380Y-155072365D02*
X146293904Y-155132842D01*
X146293904Y-155132842D02*
X146172952Y-155193318D01*
X146172952Y-155193318D02*
X145870571Y-155193318D01*
X145870571Y-155193318D02*
X145749618Y-155132842D01*
X145749618Y-155132842D02*
X145689142Y-155072365D01*
D11*
X149586905Y-87304819D02*
X149586905Y-86304819D01*
X149586905Y-86304819D02*
X149825000Y-86304819D01*
X149825000Y-86304819D02*
X149967857Y-86352438D01*
X149967857Y-86352438D02*
X150063095Y-86447676D01*
X150063095Y-86447676D02*
X150110714Y-86542914D01*
X150110714Y-86542914D02*
X150158333Y-86733390D01*
X150158333Y-86733390D02*
X150158333Y-86876247D01*
X150158333Y-86876247D02*
X150110714Y-87066723D01*
X150110714Y-87066723D02*
X150063095Y-87161961D01*
X150063095Y-87161961D02*
X149967857Y-87257200D01*
X149967857Y-87257200D02*
X149825000Y-87304819D01*
X149825000Y-87304819D02*
X149586905Y-87304819D01*
X150539286Y-86400057D02*
X150586905Y-86352438D01*
X150586905Y-86352438D02*
X150682143Y-86304819D01*
X150682143Y-86304819D02*
X150920238Y-86304819D01*
X150920238Y-86304819D02*
X151015476Y-86352438D01*
X151015476Y-86352438D02*
X151063095Y-86400057D01*
X151063095Y-86400057D02*
X151110714Y-86495295D01*
X151110714Y-86495295D02*
X151110714Y-86590533D01*
X151110714Y-86590533D02*
X151063095Y-86733390D01*
X151063095Y-86733390D02*
X150491667Y-87304819D01*
X150491667Y-87304819D02*
X151110714Y-87304819D01*
X196633333Y-87579819D02*
X196300000Y-87103628D01*
X196061905Y-87579819D02*
X196061905Y-86579819D01*
X196061905Y-86579819D02*
X196442857Y-86579819D01*
X196442857Y-86579819D02*
X196538095Y-86627438D01*
X196538095Y-86627438D02*
X196585714Y-86675057D01*
X196585714Y-86675057D02*
X196633333Y-86770295D01*
X196633333Y-86770295D02*
X196633333Y-86913152D01*
X196633333Y-86913152D02*
X196585714Y-87008390D01*
X196585714Y-87008390D02*
X196538095Y-87056009D01*
X196538095Y-87056009D02*
X196442857Y-87103628D01*
X196442857Y-87103628D02*
X196061905Y-87103628D01*
X196966667Y-86579819D02*
X197633333Y-86579819D01*
X197633333Y-86579819D02*
X197204762Y-87579819D01*
D12*
X187137618Y-67249318D02*
X187137618Y-65979318D01*
X187863333Y-67249318D02*
X187319047Y-66523603D01*
X187863333Y-65979318D02*
X187137618Y-66705032D01*
X188951904Y-65979318D02*
X188709999Y-65979318D01*
X188709999Y-65979318D02*
X188589047Y-66039794D01*
X188589047Y-66039794D02*
X188528571Y-66100270D01*
X188528571Y-66100270D02*
X188407618Y-66281699D01*
X188407618Y-66281699D02*
X188347142Y-66523603D01*
X188347142Y-66523603D02*
X188347142Y-67007413D01*
X188347142Y-67007413D02*
X188407618Y-67128365D01*
X188407618Y-67128365D02*
X188468095Y-67188842D01*
X188468095Y-67188842D02*
X188589047Y-67249318D01*
X188589047Y-67249318D02*
X188830952Y-67249318D01*
X188830952Y-67249318D02*
X188951904Y-67188842D01*
X188951904Y-67188842D02*
X189012380Y-67128365D01*
X189012380Y-67128365D02*
X189072857Y-67007413D01*
X189072857Y-67007413D02*
X189072857Y-66705032D01*
X189072857Y-66705032D02*
X189012380Y-66584080D01*
X189012380Y-66584080D02*
X188951904Y-66523603D01*
X188951904Y-66523603D02*
X188830952Y-66463127D01*
X188830952Y-66463127D02*
X188589047Y-66463127D01*
X188589047Y-66463127D02*
X188468095Y-66523603D01*
X188468095Y-66523603D02*
X188407618Y-66584080D01*
X188407618Y-66584080D02*
X188347142Y-66705032D01*
D11*
X221466666Y-46144819D02*
X221466666Y-46859104D01*
X221466666Y-46859104D02*
X221419047Y-47001961D01*
X221419047Y-47001961D02*
X221323809Y-47097200D01*
X221323809Y-47097200D02*
X221180952Y-47144819D01*
X221180952Y-47144819D02*
X221085714Y-47144819D01*
X222466666Y-47144819D02*
X221895238Y-47144819D01*
X222180952Y-47144819D02*
X222180952Y-46144819D01*
X222180952Y-46144819D02*
X222085714Y-46287676D01*
X222085714Y-46287676D02*
X221990476Y-46382914D01*
X221990476Y-46382914D02*
X221895238Y-46430533D01*
D12*
X165746905Y-158709080D02*
X165323571Y-158709080D01*
X165323571Y-159374318D02*
X165323571Y-158104318D01*
X165323571Y-158104318D02*
X165928333Y-158104318D01*
X167077381Y-159374318D02*
X166351666Y-159374318D01*
X166714523Y-159374318D02*
X166714523Y-158104318D01*
X166714523Y-158104318D02*
X166593571Y-158285746D01*
X166593571Y-158285746D02*
X166472619Y-158406699D01*
X166472619Y-158406699D02*
X166351666Y-158467175D01*
X167863571Y-158104318D02*
X167984524Y-158104318D01*
X167984524Y-158104318D02*
X168105476Y-158164794D01*
X168105476Y-158164794D02*
X168165952Y-158225270D01*
X168165952Y-158225270D02*
X168226428Y-158346222D01*
X168226428Y-158346222D02*
X168286905Y-158588127D01*
X168286905Y-158588127D02*
X168286905Y-158890508D01*
X168286905Y-158890508D02*
X168226428Y-159132413D01*
X168226428Y-159132413D02*
X168165952Y-159253365D01*
X168165952Y-159253365D02*
X168105476Y-159313842D01*
X168105476Y-159313842D02*
X167984524Y-159374318D01*
X167984524Y-159374318D02*
X167863571Y-159374318D01*
X167863571Y-159374318D02*
X167742619Y-159313842D01*
X167742619Y-159313842D02*
X167682143Y-159253365D01*
X167682143Y-159253365D02*
X167621666Y-159132413D01*
X167621666Y-159132413D02*
X167561190Y-158890508D01*
X167561190Y-158890508D02*
X167561190Y-158588127D01*
X167561190Y-158588127D02*
X167621666Y-158346222D01*
X167621666Y-158346222D02*
X167682143Y-158225270D01*
X167682143Y-158225270D02*
X167742619Y-158164794D01*
X167742619Y-158164794D02*
X167863571Y-158104318D01*
X123426667Y-93084080D02*
X123003333Y-93084080D01*
X123003333Y-93749318D02*
X123003333Y-92479318D01*
X123003333Y-92479318D02*
X123608095Y-92479318D01*
X124031428Y-92600270D02*
X124091904Y-92539794D01*
X124091904Y-92539794D02*
X124212857Y-92479318D01*
X124212857Y-92479318D02*
X124515238Y-92479318D01*
X124515238Y-92479318D02*
X124636190Y-92539794D01*
X124636190Y-92539794D02*
X124696666Y-92600270D01*
X124696666Y-92600270D02*
X124757143Y-92721222D01*
X124757143Y-92721222D02*
X124757143Y-92842175D01*
X124757143Y-92842175D02*
X124696666Y-93023603D01*
X124696666Y-93023603D02*
X123970952Y-93749318D01*
X123970952Y-93749318D02*
X124757143Y-93749318D01*
D11*
X192249405Y-87604819D02*
X192249405Y-86604819D01*
X192249405Y-86604819D02*
X192487500Y-86604819D01*
X192487500Y-86604819D02*
X192630357Y-86652438D01*
X192630357Y-86652438D02*
X192725595Y-86747676D01*
X192725595Y-86747676D02*
X192773214Y-86842914D01*
X192773214Y-86842914D02*
X192820833Y-87033390D01*
X192820833Y-87033390D02*
X192820833Y-87176247D01*
X192820833Y-87176247D02*
X192773214Y-87366723D01*
X192773214Y-87366723D02*
X192725595Y-87461961D01*
X192725595Y-87461961D02*
X192630357Y-87557200D01*
X192630357Y-87557200D02*
X192487500Y-87604819D01*
X192487500Y-87604819D02*
X192249405Y-87604819D01*
X193154167Y-86604819D02*
X193820833Y-86604819D01*
X193820833Y-86604819D02*
X193392262Y-87604819D01*
X196345833Y-64954819D02*
X196012500Y-64478628D01*
X195774405Y-64954819D02*
X195774405Y-63954819D01*
X195774405Y-63954819D02*
X196155357Y-63954819D01*
X196155357Y-63954819D02*
X196250595Y-64002438D01*
X196250595Y-64002438D02*
X196298214Y-64050057D01*
X196298214Y-64050057D02*
X196345833Y-64145295D01*
X196345833Y-64145295D02*
X196345833Y-64288152D01*
X196345833Y-64288152D02*
X196298214Y-64383390D01*
X196298214Y-64383390D02*
X196250595Y-64431009D01*
X196250595Y-64431009D02*
X196155357Y-64478628D01*
X196155357Y-64478628D02*
X195774405Y-64478628D01*
X197202976Y-63954819D02*
X197012500Y-63954819D01*
X197012500Y-63954819D02*
X196917262Y-64002438D01*
X196917262Y-64002438D02*
X196869643Y-64050057D01*
X196869643Y-64050057D02*
X196774405Y-64192914D01*
X196774405Y-64192914D02*
X196726786Y-64383390D01*
X196726786Y-64383390D02*
X196726786Y-64764342D01*
X196726786Y-64764342D02*
X196774405Y-64859580D01*
X196774405Y-64859580D02*
X196822024Y-64907200D01*
X196822024Y-64907200D02*
X196917262Y-64954819D01*
X196917262Y-64954819D02*
X197107738Y-64954819D01*
X197107738Y-64954819D02*
X197202976Y-64907200D01*
X197202976Y-64907200D02*
X197250595Y-64859580D01*
X197250595Y-64859580D02*
X197298214Y-64764342D01*
X197298214Y-64764342D02*
X197298214Y-64526247D01*
X197298214Y-64526247D02*
X197250595Y-64431009D01*
X197250595Y-64431009D02*
X197202976Y-64383390D01*
X197202976Y-64383390D02*
X197107738Y-64335771D01*
X197107738Y-64335771D02*
X196917262Y-64335771D01*
X196917262Y-64335771D02*
X196822024Y-64383390D01*
X196822024Y-64383390D02*
X196774405Y-64431009D01*
X196774405Y-64431009D02*
X196726786Y-64526247D01*
D12*
X123501667Y-70659080D02*
X123078333Y-70659080D01*
X123078333Y-71324318D02*
X123078333Y-70054318D01*
X123078333Y-70054318D02*
X123683095Y-70054318D01*
X124832143Y-71324318D02*
X124106428Y-71324318D01*
X124469285Y-71324318D02*
X124469285Y-70054318D01*
X124469285Y-70054318D02*
X124348333Y-70235746D01*
X124348333Y-70235746D02*
X124227381Y-70356699D01*
X124227381Y-70356699D02*
X124106428Y-70417175D01*
D11*
X153733333Y-64729819D02*
X153400000Y-64253628D01*
X153161905Y-64729819D02*
X153161905Y-63729819D01*
X153161905Y-63729819D02*
X153542857Y-63729819D01*
X153542857Y-63729819D02*
X153638095Y-63777438D01*
X153638095Y-63777438D02*
X153685714Y-63825057D01*
X153685714Y-63825057D02*
X153733333Y-63920295D01*
X153733333Y-63920295D02*
X153733333Y-64063152D01*
X153733333Y-64063152D02*
X153685714Y-64158390D01*
X153685714Y-64158390D02*
X153638095Y-64206009D01*
X153638095Y-64206009D02*
X153542857Y-64253628D01*
X153542857Y-64253628D02*
X153161905Y-64253628D01*
X154685714Y-64729819D02*
X154114286Y-64729819D01*
X154400000Y-64729819D02*
X154400000Y-63729819D01*
X154400000Y-63729819D02*
X154304762Y-63872676D01*
X154304762Y-63872676D02*
X154209524Y-63967914D01*
X154209524Y-63967914D02*
X154114286Y-64015533D01*
D12*
X186679618Y-134352318D02*
X186679618Y-133082318D01*
X187405333Y-134352318D02*
X186861047Y-133626603D01*
X187405333Y-133082318D02*
X186679618Y-133808032D01*
X188010095Y-134352318D02*
X188251999Y-134352318D01*
X188251999Y-134352318D02*
X188372952Y-134291842D01*
X188372952Y-134291842D02*
X188433428Y-134231365D01*
X188433428Y-134231365D02*
X188554380Y-134049937D01*
X188554380Y-134049937D02*
X188614857Y-133808032D01*
X188614857Y-133808032D02*
X188614857Y-133324222D01*
X188614857Y-133324222D02*
X188554380Y-133203270D01*
X188554380Y-133203270D02*
X188493904Y-133142794D01*
X188493904Y-133142794D02*
X188372952Y-133082318D01*
X188372952Y-133082318D02*
X188131047Y-133082318D01*
X188131047Y-133082318D02*
X188010095Y-133142794D01*
X188010095Y-133142794D02*
X187949618Y-133203270D01*
X187949618Y-133203270D02*
X187889142Y-133324222D01*
X187889142Y-133324222D02*
X187889142Y-133626603D01*
X187889142Y-133626603D02*
X187949618Y-133747556D01*
X187949618Y-133747556D02*
X188010095Y-133808032D01*
X188010095Y-133808032D02*
X188131047Y-133868508D01*
X188131047Y-133868508D02*
X188372952Y-133868508D01*
X188372952Y-133868508D02*
X188493904Y-133808032D01*
X188493904Y-133808032D02*
X188554380Y-133747556D01*
X188554380Y-133747556D02*
X188614857Y-133626603D01*
X186331905Y-49409080D02*
X185908571Y-49409080D01*
X185908571Y-50074318D02*
X185908571Y-48804318D01*
X185908571Y-48804318D02*
X186513333Y-48804318D01*
X187662381Y-50074318D02*
X186936666Y-50074318D01*
X187299523Y-50074318D02*
X187299523Y-48804318D01*
X187299523Y-48804318D02*
X187178571Y-48985746D01*
X187178571Y-48985746D02*
X187057619Y-49106699D01*
X187057619Y-49106699D02*
X186936666Y-49167175D01*
X188146190Y-48925270D02*
X188206666Y-48864794D01*
X188206666Y-48864794D02*
X188327619Y-48804318D01*
X188327619Y-48804318D02*
X188630000Y-48804318D01*
X188630000Y-48804318D02*
X188750952Y-48864794D01*
X188750952Y-48864794D02*
X188811428Y-48925270D01*
X188811428Y-48925270D02*
X188871905Y-49046222D01*
X188871905Y-49046222D02*
X188871905Y-49167175D01*
X188871905Y-49167175D02*
X188811428Y-49348603D01*
X188811428Y-49348603D02*
X188085714Y-50074318D01*
X188085714Y-50074318D02*
X188871905Y-50074318D01*
D11*
X149161905Y-111079819D02*
X149161905Y-110079819D01*
X149161905Y-110079819D02*
X149400000Y-110079819D01*
X149400000Y-110079819D02*
X149542857Y-110127438D01*
X149542857Y-110127438D02*
X149638095Y-110222676D01*
X149638095Y-110222676D02*
X149685714Y-110317914D01*
X149685714Y-110317914D02*
X149733333Y-110508390D01*
X149733333Y-110508390D02*
X149733333Y-110651247D01*
X149733333Y-110651247D02*
X149685714Y-110841723D01*
X149685714Y-110841723D02*
X149638095Y-110936961D01*
X149638095Y-110936961D02*
X149542857Y-111032200D01*
X149542857Y-111032200D02*
X149400000Y-111079819D01*
X149400000Y-111079819D02*
X149161905Y-111079819D01*
X150066667Y-110079819D02*
X150685714Y-110079819D01*
X150685714Y-110079819D02*
X150352381Y-110460771D01*
X150352381Y-110460771D02*
X150495238Y-110460771D01*
X150495238Y-110460771D02*
X150590476Y-110508390D01*
X150590476Y-110508390D02*
X150638095Y-110556009D01*
X150638095Y-110556009D02*
X150685714Y-110651247D01*
X150685714Y-110651247D02*
X150685714Y-110889342D01*
X150685714Y-110889342D02*
X150638095Y-110984580D01*
X150638095Y-110984580D02*
X150590476Y-111032200D01*
X150590476Y-111032200D02*
X150495238Y-111079819D01*
X150495238Y-111079819D02*
X150209524Y-111079819D01*
X150209524Y-111079819D02*
X150114286Y-111032200D01*
X150114286Y-111032200D02*
X150066667Y-110984580D01*
X153558333Y-152904819D02*
X153225000Y-152428628D01*
X152986905Y-152904819D02*
X152986905Y-151904819D01*
X152986905Y-151904819D02*
X153367857Y-151904819D01*
X153367857Y-151904819D02*
X153463095Y-151952438D01*
X153463095Y-151952438D02*
X153510714Y-152000057D01*
X153510714Y-152000057D02*
X153558333Y-152095295D01*
X153558333Y-152095295D02*
X153558333Y-152238152D01*
X153558333Y-152238152D02*
X153510714Y-152333390D01*
X153510714Y-152333390D02*
X153463095Y-152381009D01*
X153463095Y-152381009D02*
X153367857Y-152428628D01*
X153367857Y-152428628D02*
X152986905Y-152428628D01*
X154463095Y-151904819D02*
X153986905Y-151904819D01*
X153986905Y-151904819D02*
X153939286Y-152381009D01*
X153939286Y-152381009D02*
X153986905Y-152333390D01*
X153986905Y-152333390D02*
X154082143Y-152285771D01*
X154082143Y-152285771D02*
X154320238Y-152285771D01*
X154320238Y-152285771D02*
X154415476Y-152333390D01*
X154415476Y-152333390D02*
X154463095Y-152381009D01*
X154463095Y-152381009D02*
X154510714Y-152476247D01*
X154510714Y-152476247D02*
X154510714Y-152714342D01*
X154510714Y-152714342D02*
X154463095Y-152809580D01*
X154463095Y-152809580D02*
X154415476Y-152857200D01*
X154415476Y-152857200D02*
X154320238Y-152904819D01*
X154320238Y-152904819D02*
X154082143Y-152904819D01*
X154082143Y-152904819D02*
X153986905Y-152857200D01*
X153986905Y-152857200D02*
X153939286Y-152809580D01*
D12*
X166001667Y-92909080D02*
X165578333Y-92909080D01*
X165578333Y-93574318D02*
X165578333Y-92304318D01*
X165578333Y-92304318D02*
X166183095Y-92304318D01*
X166545952Y-92304318D02*
X167392619Y-92304318D01*
X167392619Y-92304318D02*
X166848333Y-93574318D01*
X123176667Y-116284080D02*
X122753333Y-116284080D01*
X122753333Y-116949318D02*
X122753333Y-115679318D01*
X122753333Y-115679318D02*
X123358095Y-115679318D01*
X123720952Y-115679318D02*
X124507143Y-115679318D01*
X124507143Y-115679318D02*
X124083809Y-116163127D01*
X124083809Y-116163127D02*
X124265238Y-116163127D01*
X124265238Y-116163127D02*
X124386190Y-116223603D01*
X124386190Y-116223603D02*
X124446666Y-116284080D01*
X124446666Y-116284080D02*
X124507143Y-116405032D01*
X124507143Y-116405032D02*
X124507143Y-116707413D01*
X124507143Y-116707413D02*
X124446666Y-116828365D01*
X124446666Y-116828365D02*
X124386190Y-116888842D01*
X124386190Y-116888842D02*
X124265238Y-116949318D01*
X124265238Y-116949318D02*
X123902381Y-116949318D01*
X123902381Y-116949318D02*
X123781428Y-116888842D01*
X123781428Y-116888842D02*
X123720952Y-116828365D01*
D13*
%TO.C,K7*%
X188050000Y-91150000D02*
X188050000Y-103450000D01*
X188050000Y-103450000D02*
X190800000Y-103450000D01*
X190800000Y-91150000D02*
X188050000Y-91150000D01*
X192800000Y-91150000D02*
X201300000Y-91150000D01*
X192800000Y-103450000D02*
X201300000Y-103450000D01*
X203550000Y-103450000D02*
X203550000Y-91150000D01*
%TO.C,K8*%
X187600000Y-115050000D02*
X187600000Y-127350000D01*
X187600000Y-127350000D02*
X190350000Y-127350000D01*
X190350000Y-115050000D02*
X187600000Y-115050000D01*
X192350000Y-115050000D02*
X200850000Y-115050000D01*
X192350000Y-127350000D02*
X200850000Y-127350000D01*
X203100000Y-127350000D02*
X203100000Y-115050000D01*
D12*
%TO.C,F11*%
X143270000Y-50460000D02*
X143270000Y-57190000D01*
X143270000Y-57190000D02*
X163080000Y-57190000D01*
X163080000Y-50460000D02*
X143270000Y-50460000D01*
X163080000Y-57190000D02*
X163080000Y-50460000D01*
D13*
%TO.C,K3*%
X145100000Y-114950000D02*
X145100000Y-127250000D01*
X145100000Y-127250000D02*
X147850000Y-127250000D01*
X147850000Y-114950000D02*
X145100000Y-114950000D01*
X149850000Y-114950000D02*
X158350000Y-114950000D01*
X149850000Y-127250000D02*
X158350000Y-127250000D01*
X160600000Y-127250000D02*
X160600000Y-114950000D01*
D14*
%TO.C,R3*%
X153902064Y-111540000D02*
X153447936Y-111540000D01*
X153902064Y-113010000D02*
X153447936Y-113010000D01*
%TO.C,D8*%
X190827500Y-111565000D02*
X190827500Y-113485000D01*
X190827500Y-113485000D02*
X193512500Y-113485000D01*
X193512500Y-111565000D02*
X190827500Y-111565000D01*
%TO.C,R4*%
X154077064Y-132465000D02*
X153622936Y-132465000D01*
X154077064Y-133935000D02*
X153622936Y-133935000D01*
%TO.C,R8*%
X196439564Y-111790000D02*
X195985436Y-111790000D01*
X196439564Y-113260000D02*
X195985436Y-113260000D01*
D12*
%TO.C,F9*%
X165245000Y-138635000D02*
X165245000Y-145365000D01*
X165245000Y-145365000D02*
X185055000Y-145365000D01*
X185055000Y-138635000D02*
X165245000Y-138635000D01*
X185055000Y-145365000D02*
X185055000Y-138635000D01*
D14*
%TO.C,D4*%
X148390000Y-132215000D02*
X148390000Y-134135000D01*
X148390000Y-134135000D02*
X151075000Y-134135000D01*
X151075000Y-132215000D02*
X148390000Y-132215000D01*
D12*
%TO.C,F5*%
X122820000Y-159385000D02*
X122820000Y-166115000D01*
X122820000Y-166115000D02*
X142630000Y-166115000D01*
X142630000Y-159385000D02*
X122820000Y-159385000D01*
X142630000Y-166115000D02*
X142630000Y-159385000D01*
D14*
%TO.C,D10*%
X190840000Y-153465000D02*
X190840000Y-155385000D01*
X190840000Y-155385000D02*
X193525000Y-155385000D01*
X193525000Y-153465000D02*
X190840000Y-153465000D01*
%TO.C,R10*%
X196477064Y-153715000D02*
X196022936Y-153715000D01*
X196477064Y-155185000D02*
X196022936Y-155185000D01*
%TO.C,D1*%
X148540000Y-64940000D02*
X148540000Y-66860000D01*
X148540000Y-66860000D02*
X151225000Y-66860000D01*
X151225000Y-64940000D02*
X148540000Y-64940000D01*
D12*
%TO.C,F8*%
X165220000Y-117835000D02*
X165220000Y-124565000D01*
X165220000Y-124565000D02*
X185030000Y-124565000D01*
X185030000Y-117835000D02*
X165220000Y-117835000D01*
X185030000Y-124565000D02*
X185030000Y-117835000D01*
D14*
%TO.C,R9*%
X196327064Y-132640000D02*
X195872936Y-132640000D01*
X196327064Y-134110000D02*
X195872936Y-134110000D01*
D12*
%TO.C,F4*%
X122620000Y-138535000D02*
X122620000Y-145265000D01*
X122620000Y-145265000D02*
X142430000Y-145265000D01*
X142430000Y-138535000D02*
X122620000Y-138535000D01*
X142430000Y-145265000D02*
X142430000Y-138535000D01*
D14*
%TO.C,R2*%
X154364564Y-87790000D02*
X153910436Y-87790000D01*
X154364564Y-89260000D02*
X153910436Y-89260000D01*
%TO.C,D9*%
X190777500Y-132415000D02*
X190777500Y-134335000D01*
X190777500Y-134335000D02*
X193462500Y-134335000D01*
X193462500Y-132415000D02*
X190777500Y-132415000D01*
%TO.C,D6*%
X191240000Y-65140000D02*
X191240000Y-67060000D01*
X191240000Y-67060000D02*
X193925000Y-67060000D01*
X193925000Y-65140000D02*
X191240000Y-65140000D01*
D13*
%TO.C,K4*%
X145250000Y-135725000D02*
X145250000Y-148025000D01*
X145250000Y-148025000D02*
X148000000Y-148025000D01*
X148000000Y-135725000D02*
X145250000Y-135725000D01*
X150000000Y-135725000D02*
X158500000Y-135725000D01*
X150000000Y-148025000D02*
X158500000Y-148025000D01*
X160750000Y-148025000D02*
X160750000Y-135725000D01*
D14*
%TO.C,D5*%
X148490000Y-153140000D02*
X148490000Y-155060000D01*
X148490000Y-155060000D02*
X151175000Y-155060000D01*
X151175000Y-153140000D02*
X148490000Y-153140000D01*
D13*
%TO.C,K2*%
X145425000Y-91125000D02*
X145425000Y-103425000D01*
X145425000Y-103425000D02*
X148175000Y-103425000D01*
X148175000Y-91125000D02*
X145425000Y-91125000D01*
X150175000Y-91125000D02*
X158675000Y-91125000D01*
X150175000Y-103425000D02*
X158675000Y-103425000D01*
X160925000Y-103425000D02*
X160925000Y-91125000D01*
%TO.C,K10*%
X187675000Y-156825000D02*
X187675000Y-169125000D01*
X187675000Y-169125000D02*
X190425000Y-169125000D01*
X190425000Y-156825000D02*
X187675000Y-156825000D01*
X192425000Y-156825000D02*
X200925000Y-156825000D01*
X192425000Y-169125000D02*
X200925000Y-169125000D01*
X203175000Y-169125000D02*
X203175000Y-156825000D01*
%TO.C,K1*%
X145375000Y-68575000D02*
X145375000Y-80875000D01*
X145375000Y-80875000D02*
X148125000Y-80875000D01*
X148125000Y-68575000D02*
X145375000Y-68575000D01*
X150125000Y-68575000D02*
X158625000Y-68575000D01*
X150125000Y-80875000D02*
X158625000Y-80875000D01*
X160875000Y-80875000D02*
X160875000Y-68575000D01*
D12*
%TO.C,F6*%
X165620000Y-71435000D02*
X165620000Y-78165000D01*
X165620000Y-78165000D02*
X185430000Y-78165000D01*
X185430000Y-71435000D02*
X165620000Y-71435000D01*
X185430000Y-78165000D02*
X185430000Y-71435000D01*
D13*
%TO.C,K5*%
X145375000Y-156600000D02*
X145375000Y-168900000D01*
X145375000Y-168900000D02*
X148125000Y-168900000D01*
X148125000Y-156600000D02*
X145375000Y-156600000D01*
X150125000Y-156600000D02*
X158625000Y-156600000D01*
X150125000Y-168900000D02*
X158625000Y-168900000D01*
X160875000Y-168900000D02*
X160875000Y-156600000D01*
D14*
%TO.C,D2*%
X148640000Y-87540000D02*
X148640000Y-89460000D01*
X148640000Y-89460000D02*
X151325000Y-89460000D01*
X151325000Y-87540000D02*
X148640000Y-87540000D01*
%TO.C,R7*%
X197064564Y-88090000D02*
X196610436Y-88090000D01*
X197064564Y-89560000D02*
X196610436Y-89560000D01*
D13*
%TO.C,K6*%
X188075000Y-68675000D02*
X188075000Y-80975000D01*
X188075000Y-80975000D02*
X190825000Y-80975000D01*
X190825000Y-68675000D02*
X188075000Y-68675000D01*
X192825000Y-68675000D02*
X201325000Y-68675000D01*
X192825000Y-80975000D02*
X201325000Y-80975000D01*
X203575000Y-80975000D02*
X203575000Y-68675000D01*
D14*
%TO.C,J1*%
X224000000Y-46290000D02*
X239200000Y-46290000D01*
X224000000Y-58290000D02*
X224000000Y-46290000D01*
X224000000Y-58290000D02*
X224000000Y-180390000D01*
X224000000Y-180390000D02*
X239200000Y-180390000D01*
X225000000Y-58290000D02*
X228500000Y-58290000D01*
X228500000Y-58260000D02*
X228500000Y-55660000D01*
X239200000Y-46290000D02*
X239200000Y-180390000D01*
D12*
%TO.C,F10*%
X165245000Y-159735000D02*
X165245000Y-166465000D01*
X165245000Y-166465000D02*
X185055000Y-166465000D01*
X185055000Y-159735000D02*
X165245000Y-159735000D01*
X185055000Y-166465000D02*
X185055000Y-159735000D01*
%TO.C,F2*%
X122945000Y-94110000D02*
X122945000Y-100840000D01*
X122945000Y-100840000D02*
X142755000Y-100840000D01*
X142755000Y-94110000D02*
X122945000Y-94110000D01*
X142755000Y-100840000D02*
X142755000Y-94110000D01*
D14*
%TO.C,D7*%
X191302500Y-87840000D02*
X191302500Y-89760000D01*
X191302500Y-89760000D02*
X193987500Y-89760000D01*
X193987500Y-87840000D02*
X191302500Y-87840000D01*
%TO.C,R6*%
X196739564Y-65340000D02*
X196285436Y-65340000D01*
X196739564Y-66810000D02*
X196285436Y-66810000D01*
D12*
%TO.C,F1*%
X122945000Y-71710000D02*
X122945000Y-78440000D01*
X122945000Y-78440000D02*
X142755000Y-78440000D01*
X142755000Y-71710000D02*
X122945000Y-71710000D01*
X142755000Y-78440000D02*
X142755000Y-71710000D01*
D14*
%TO.C,R1*%
X154127064Y-65165000D02*
X153672936Y-65165000D01*
X154127064Y-66635000D02*
X153672936Y-66635000D01*
D13*
%TO.C,K9*%
X187625000Y-135750000D02*
X187625000Y-148050000D01*
X187625000Y-148050000D02*
X190375000Y-148050000D01*
X190375000Y-135750000D02*
X187625000Y-135750000D01*
X192375000Y-135750000D02*
X200875000Y-135750000D01*
X192375000Y-148050000D02*
X200875000Y-148050000D01*
X203125000Y-148050000D02*
X203125000Y-135750000D01*
D12*
%TO.C,F12*%
X185845000Y-50460000D02*
X185845000Y-57190000D01*
X185845000Y-57190000D02*
X205655000Y-57190000D01*
X205655000Y-50460000D02*
X185845000Y-50460000D01*
X205655000Y-57190000D02*
X205655000Y-50460000D01*
D14*
%TO.C,D3*%
X148215000Y-111315000D02*
X148215000Y-113235000D01*
X148215000Y-113235000D02*
X150900000Y-113235000D01*
X150900000Y-111315000D02*
X148215000Y-111315000D01*
%TO.C,R5*%
X153977064Y-153390000D02*
X153522936Y-153390000D01*
X153977064Y-154860000D02*
X153522936Y-154860000D01*
D12*
%TO.C,F7*%
X165620000Y-94010000D02*
X165620000Y-100740000D01*
X165620000Y-100740000D02*
X185430000Y-100740000D01*
X185430000Y-94010000D02*
X165620000Y-94010000D01*
X185430000Y-100740000D02*
X185430000Y-94010000D01*
%TO.C,F3*%
X122645000Y-117635000D02*
X122645000Y-124365000D01*
X122645000Y-124365000D02*
X142455000Y-124365000D01*
X142455000Y-117635000D02*
X122645000Y-117635000D01*
X142455000Y-124365000D02*
X142455000Y-117635000D01*
%TD*%
%LPC*%
D15*
%TO.C,H1*%
X130625000Y-50375000D03*
%TD*%
D16*
%TO.C,K7*%
X191950000Y-102300000D03*
X202150000Y-102300000D03*
X202150000Y-92300000D03*
X191950000Y-92300000D03*
X189450000Y-97300000D03*
%TD*%
%TO.C,K8*%
X191500000Y-126200000D03*
X201700000Y-126200000D03*
X201700000Y-116200000D03*
X191500000Y-116200000D03*
X189000000Y-121200000D03*
%TD*%
D17*
%TO.C,F11*%
X159910000Y-55525000D03*
X159910000Y-52125000D03*
X146440000Y-55525000D03*
X146440000Y-52125000D03*
%TD*%
D16*
%TO.C,K3*%
X149000000Y-126100000D03*
X159200000Y-126100000D03*
X159200000Y-116100000D03*
X149000000Y-116100000D03*
X146500000Y-121100000D03*
%TD*%
D18*
%TO.C,R3*%
X154587500Y-112275000D03*
X152762500Y-112275000D03*
%TD*%
D19*
%TO.C,D8*%
X191575000Y-112525000D03*
X193450000Y-112525000D03*
%TD*%
D18*
%TO.C,R4*%
X154762500Y-133200000D03*
X152937500Y-133200000D03*
%TD*%
%TO.C,R8*%
X197125000Y-112525000D03*
X195300000Y-112525000D03*
%TD*%
D17*
%TO.C,F9*%
X181885000Y-143700000D03*
X181885000Y-140300000D03*
X168415000Y-143700000D03*
X168415000Y-140300000D03*
%TD*%
D19*
%TO.C,D4*%
X149137500Y-133175000D03*
X151012500Y-133175000D03*
%TD*%
D17*
%TO.C,F5*%
X139460000Y-164450000D03*
X139460000Y-161050000D03*
X125990000Y-164450000D03*
X125990000Y-161050000D03*
%TD*%
D19*
%TO.C,D10*%
X191587500Y-154425000D03*
X193462500Y-154425000D03*
%TD*%
D18*
%TO.C,R10*%
X197162500Y-154450000D03*
X195337500Y-154450000D03*
%TD*%
D19*
%TO.C,D1*%
X149287500Y-65900000D03*
X151162500Y-65900000D03*
%TD*%
D17*
%TO.C,F8*%
X181860000Y-122900000D03*
X181860000Y-119500000D03*
X168390000Y-122900000D03*
X168390000Y-119500000D03*
%TD*%
D18*
%TO.C,R9*%
X197012500Y-133375000D03*
X195187500Y-133375000D03*
%TD*%
D17*
%TO.C,F4*%
X139260000Y-143600000D03*
X139260000Y-140200000D03*
X125790000Y-143600000D03*
X125790000Y-140200000D03*
%TD*%
D18*
%TO.C,R2*%
X155050000Y-88525000D03*
X153225000Y-88525000D03*
%TD*%
D19*
%TO.C,D9*%
X191525000Y-133375000D03*
X193400000Y-133375000D03*
%TD*%
D15*
%TO.C,H2*%
X130625000Y-175400000D03*
%TD*%
D19*
%TO.C,D6*%
X191987500Y-66100000D03*
X193862500Y-66100000D03*
%TD*%
D16*
%TO.C,K4*%
X149150000Y-146875000D03*
X159350000Y-146875000D03*
X159350000Y-136875000D03*
X149150000Y-136875000D03*
X146650000Y-141875000D03*
%TD*%
D19*
%TO.C,D5*%
X149237500Y-154100000D03*
X151112500Y-154100000D03*
%TD*%
D16*
%TO.C,K2*%
X149325000Y-102275000D03*
X159525000Y-102275000D03*
X159525000Y-92275000D03*
X149325000Y-92275000D03*
X146825000Y-97275000D03*
%TD*%
%TO.C,K10*%
X191575000Y-167975000D03*
X201775000Y-167975000D03*
X201775000Y-157975000D03*
X191575000Y-157975000D03*
X189075000Y-162975000D03*
%TD*%
%TO.C,K1*%
X149275000Y-79725000D03*
X159475000Y-79725000D03*
X159475000Y-69725000D03*
X149275000Y-69725000D03*
X146775000Y-74725000D03*
%TD*%
D17*
%TO.C,F6*%
X182260000Y-76500000D03*
X182260000Y-73100000D03*
X168790000Y-76500000D03*
X168790000Y-73100000D03*
%TD*%
D16*
%TO.C,K5*%
X149275000Y-167750000D03*
X159475000Y-167750000D03*
X159475000Y-157750000D03*
X149275000Y-157750000D03*
X146775000Y-162750000D03*
%TD*%
D19*
%TO.C,D2*%
X149387500Y-88500000D03*
X151262500Y-88500000D03*
%TD*%
D18*
%TO.C,R7*%
X197750000Y-88825000D03*
X195925000Y-88825000D03*
%TD*%
D16*
%TO.C,K6*%
X191975000Y-79825000D03*
X202175000Y-79825000D03*
X202175000Y-69825000D03*
X191975000Y-69825000D03*
X189475000Y-74825000D03*
%TD*%
D20*
%TO.C,J1*%
X230700000Y-50350000D03*
X230700000Y-175350000D03*
D21*
X226700000Y-168320000D03*
X226700000Y-164990000D03*
X226700000Y-161660000D03*
X226700000Y-158330000D03*
X226700000Y-155000000D03*
X226700000Y-151670000D03*
X226700000Y-148340000D03*
X226700000Y-145010000D03*
X226700000Y-141680000D03*
X226700000Y-138350000D03*
X226700000Y-135020000D03*
X226700000Y-131690000D03*
X226700000Y-128360000D03*
X226700000Y-125030000D03*
X226700000Y-100280000D03*
X226700000Y-96950000D03*
X226700000Y-93620000D03*
X226700000Y-90290000D03*
X226700000Y-86960000D03*
X226700000Y-83630000D03*
X226700000Y-80300000D03*
X226700000Y-76970000D03*
X226700000Y-73640000D03*
X226700000Y-70310000D03*
X226700000Y-66980000D03*
X226700000Y-63650000D03*
X226700000Y-60320000D03*
D22*
X226700000Y-56990000D03*
D21*
X231500000Y-168320000D03*
X231500000Y-164990000D03*
X231500000Y-161660000D03*
X231500000Y-158330000D03*
X231500000Y-155000000D03*
X231500000Y-151670000D03*
X231500000Y-148340000D03*
X231500000Y-145010000D03*
X231500000Y-141680000D03*
X231500000Y-138350000D03*
X231500000Y-135020000D03*
X231500000Y-131690000D03*
X231500000Y-128360000D03*
X231500000Y-125030000D03*
X231500000Y-100280000D03*
X231500000Y-96950000D03*
X231500000Y-93620000D03*
X231500000Y-90290000D03*
X231500000Y-86960000D03*
X231500000Y-83630000D03*
X231500000Y-80300000D03*
X231500000Y-76970000D03*
X231500000Y-73640000D03*
X231500000Y-70310000D03*
X231500000Y-66980000D03*
X231500000Y-63650000D03*
X231500000Y-60320000D03*
X231500000Y-56990000D03*
%TD*%
D17*
%TO.C,F10*%
X181885000Y-164800000D03*
X181885000Y-161400000D03*
X168415000Y-164800000D03*
X168415000Y-161400000D03*
%TD*%
%TO.C,F2*%
X139585000Y-99175000D03*
X139585000Y-95775000D03*
X126115000Y-99175000D03*
X126115000Y-95775000D03*
%TD*%
D19*
%TO.C,D7*%
X192050000Y-88800000D03*
X193925000Y-88800000D03*
%TD*%
D18*
%TO.C,R6*%
X197425000Y-66075000D03*
X195600000Y-66075000D03*
%TD*%
D17*
%TO.C,F1*%
X139585000Y-76775000D03*
X139585000Y-73375000D03*
X126115000Y-76775000D03*
X126115000Y-73375000D03*
%TD*%
D18*
%TO.C,R1*%
X154812500Y-65900000D03*
X152987500Y-65900000D03*
%TD*%
D16*
%TO.C,K9*%
X191525000Y-146900000D03*
X201725000Y-146900000D03*
X201725000Y-136900000D03*
X191525000Y-136900000D03*
X189025000Y-141900000D03*
%TD*%
D17*
%TO.C,F12*%
X202485000Y-55525000D03*
X202485000Y-52125000D03*
X189015000Y-55525000D03*
X189015000Y-52125000D03*
%TD*%
D19*
%TO.C,D3*%
X148962500Y-112275000D03*
X150837500Y-112275000D03*
%TD*%
D18*
%TO.C,R5*%
X154662500Y-154125000D03*
X152837500Y-154125000D03*
%TD*%
D17*
%TO.C,F7*%
X182260000Y-99075000D03*
X182260000Y-95675000D03*
X168790000Y-99075000D03*
X168790000Y-95675000D03*
%TD*%
%TO.C,F3*%
X139285000Y-122700000D03*
X139285000Y-119300000D03*
X125815000Y-122700000D03*
X125815000Y-119300000D03*
%TD*%
%LPD*%
M02*
